<svg id="Layer_9" data-name="Layer 9" xmlns="http://www.w3.org/2000/svg" viewBox="0 0 158 270.25"><defs><style>.cls-1{fill:#093b20;}.cls-2{fill:#1a5f34;}</style></defs><title>grid</title><g id="Layer_3" data-name="Layer 3"><rect class="cls-1" width="158" height="270"/></g><g id="Layer_7" data-name="Layer 7"><path class="cls-2" d="M282.59,353.21" transform="translate(-284 -327)"/><path class="cls-2" d="M284,353c11,29.92,42.68,38,42.68,38L284,342" transform="translate(-284 -327)"/><path class="cls-2" d="M296,327l49.34,45.34S337.92,338,308,327" transform="translate(-284 -327)"/><path class="cls-2" d="M307.55,328.25" transform="translate(-284 -327)"/><path class="cls-2" d="M337.53,327.08,362.34,341s3-13-19.21-13.92" transform="translate(-284 -327)"/><path class="cls-2" d="M343.13,327.08" transform="translate(-284 -327)"/><path class="cls-2" d="M284.08,379.53,298,404.34s-13,3-13.92-19.21" transform="translate(-284 -327)"/><path class="cls-2" d="M284.08,385.13" transform="translate(-284 -327)"/></g><g id="Layer_8" data-name="Layer 8"><path class="cls-2" d="M284,584l43.68-48.5S295,543.08,284,573" transform="translate(-284 -327)"/><path class="cls-2" d="M282.59,573.29" transform="translate(-284 -327)"/><path class="cls-2" d="M282.59,584.31" transform="translate(-284 -327)"/><path class="cls-2" d="M307.55,598.25" transform="translate(-284 -327)"/><path class="cls-2" d="M308,597c29.92-11,37.34-43.84,37.34-43.84L297,597" transform="translate(-284 -327)"/><path class="cls-2" d="M343.13,598.08" transform="translate(-284 -327)"/><path class="cls-2" d="M343,597c21.21-3.08,19.34-16,19.34-16L338,597" transform="translate(-284 -327)"/><path class="cls-2" d="M284.08,544.47,298,519.66s-13-3-13.92,19.21" transform="translate(-284 -327)"/><path class="cls-2" d="M284.08,538.87" transform="translate(-284 -327)"/></g><g id="Layer_5" data-name="Layer 5"><path class="cls-2" d="M442,341l-45.5,50S431,382.92,442,353" transform="translate(-284 -327)"/><path class="cls-2" d="M440.59,353.21" transform="translate(-284 -327)"/><path class="cls-2" d="M415.63,328.25" transform="translate(-284 -327)"/><path class="cls-2" d="M426.65,328.25" transform="translate(-284 -327)"/><path class="cls-2" d="M428,327l-50.16,45.34S386.08,338,416,327" transform="translate(-284 -327)"/><path class="cls-2" d="M384.74,328.08" transform="translate(-284 -327)"/><path class="cls-2" d="M390.47,327.08,365.66,341s-3-13,19.21-13.92" transform="translate(-284 -327)"/><path class="cls-2" d="M384.87,327.08" transform="translate(-284 -327)"/><path class="cls-2" d="M442.08,385.13" transform="translate(-284 -327)"/><path class="cls-2" d="M442,385c-3.08,21.21-16,19.34-16,19.34L442,380" transform="translate(-284 -327)"/></g><g id="Layer_4" data-name="Layer 4"><path class="cls-2" d="M442,585l-44.5-48.5S431,544.08,442,574" transform="translate(-284 -327)"/><path class="cls-2" d="M425.65,597.25l-48.81-44.09s7.87,33.07,37.79,44.09" transform="translate(-284 -327)"/><path class="cls-2" d="M414.63,597.25" transform="translate(-284 -327)"/><path class="cls-2" d="M425.65,597.25" transform="translate(-284 -327)"/><path class="cls-2" d="M383.74,597.08" transform="translate(-284 -327)"/><path class="cls-2" d="M383.87,597.08" transform="translate(-284 -327)"/><path class="cls-2" d="M383.87,597.08C362.66,594,364.66,581,364.66,581l24.81,16.08" transform="translate(-284 -327)"/><path class="cls-2" d="M442.08,537.87" transform="translate(-284 -327)"/><path class="cls-2" d="M442,538c-3.08-21.21-16-19.34-16-19.34L442,543" transform="translate(-284 -327)"/></g><g id="Layer_1" data-name="Layer 1"><path class="cls-2" d="M359.59,453.31l44.09-48.81s-33.07,7.87-44.09,37.79" transform="translate(-284 -327)"/><path class="cls-2" d="M359.59,453.31,315.5,404.5s33.07,7.87,44.09,37.79" transform="translate(-284 -327)"/><path class="cls-2" d="M359.59,492.21c11,29.92,44.09,37.79,44.09,37.79l-44.09-48.81L315.5,530s33.07-7.87,44.09-37.79" transform="translate(-284 -327)"/><path class="cls-2" d="M345.65,467.25l-48.81-44.09s7.87,33.07,37.79,44.09" transform="translate(-284 -327)"/><path class="cls-2" d="M345.65,467.25l-48.81,44.09s7.87-33.07,37.79-44.09" transform="translate(-284 -327)"/><path class="cls-2" d="M384.55,467.25c29.92-11,37.79-44.09,37.79-44.09l-48.81,44.09,48.81,44.09s-7.87-33.07-37.79-44.09" transform="translate(-284 -327)"/><path class="cls-2" d="M420.13,467.08C441.34,464,439.34,451,439.34,451l-24.81,16.08L439.34,481s3-13-19.21-13.92" transform="translate(-284 -327)"/><path class="cls-2" d="M303.74,467.08" transform="translate(-284 -327)"/><path class="cls-2" d="M303.87,467.08C282.66,464,284.66,451,284.66,451l24.81,16.08L284.66,481s-3-13,19.21-13.92" transform="translate(-284 -327)"/><path class="cls-2" d="M361.08,407.87C358,386.66,345,388.66,345,388.66l16.08,24.81L375,388.66s-13-3-13.92,19.21" transform="translate(-284 -327)"/><path class="cls-2" d="M361.08,524.13C358,545.34,345,543.34,345,543.34l16.08-24.81L375,543.34s-13,3-13.92-19.21" transform="translate(-284 -327)"/></g></svg>