<svg id="Layer_1" data-name="Layer 1" xmlns="http://www.w3.org/2000/svg" xmlns:xlink="http://www.w3.org/1999/xlink" viewBox="0 0 365.8 402.61"><defs><style>.cls-1{fill:url(#Degradado_sin_nombre_4);}.cls-2{fill:url(#Degradado_sin_nombre_3);}.cls-3{fill:url(#Degradado_sin_nombre_4-2);}.cls-4{fill:#006d2c;}.cls-5{fill:#3a3a3a;}.cls-6{fill:#a8000d;}.cls-7{fill:#e0101a;}.cls-8{fill:#00923a;}.cls-9{fill:#0a0b09;}.cls-10,.cls-36{fill:#fff;}.cls-11{fill:url(#radial-gradient);}.cls-12{fill:none;stroke:#000;stroke-miterlimit:10;}.cls-13{fill:url(#Degradado_sin_nombre_6);}.cls-14{fill:url(#Degradado_sin_nombre_2);}.cls-15{fill:url(#Degradado_sin_nombre_6-2);}.cls-16{fill:url(#Degradado_sin_nombre_2-2);}.cls-17{fill:url(#Degradado_sin_nombre_6-3);}.cls-18{fill:url(#Degradado_sin_nombre_2-3);}.cls-19{fill:url(#Degradado_sin_nombre_6-4);}.cls-20{fill:url(#Degradado_sin_nombre_2-4);}.cls-21{fill:url(#Degradado_sin_nombre_6-5);}.cls-22{fill:url(#Degradado_sin_nombre_2-5);}.cls-23{fill:url(#Degradado_sin_nombre_6-6);}.cls-24{fill:url(#Degradado_sin_nombre_2-6);}.cls-25{fill:url(#Degradado_sin_nombre_6-7);}.cls-26{fill:url(#Degradado_sin_nombre_2-7);}.cls-27{fill:url(#radial-gradient-2);}.cls-28,.cls-29,.cls-30,.cls-31,.cls-32,.cls-33,.cls-34,.cls-35,.cls-36,.cls-37,.cls-38,.cls-39,.cls-40,.cls-41,.cls-42,.cls-43,.cls-44{fill-rule:evenodd;}.cls-28{fill:url(#radial-gradient-3);}.cls-29{fill:url(#linear-gradient);}.cls-30{fill:url(#GradientFill_7);}.cls-31{fill:url(#linear-gradient-2);}.cls-32{fill:url(#radial-gradient-4);}.cls-33{fill:url(#linear-gradient-3);}.cls-34{fill:url(#linear-gradient-4);}.cls-35{fill:url(#GradientFill_10);}.cls-37{fill:url(#radial-gradient-5);}.cls-38{fill:url(#GradientFill_11);}.cls-39{fill:url(#GradientFill_7-2);}.cls-40{fill:#d32222;}.cls-41{fill:url(#GradientFill_11-2);}.cls-42{fill:url(#GradientFill_7-3);}.cls-43{fill:url(#GradientFill_14);}.cls-44{fill:url(#GradientFill_10-2);}</style><linearGradient id="Degradado_sin_nombre_4" x1="348.34" y1="1081.14" x2="19.52" y2="1241.52" gradientTransform="translate(0 -979)" gradientUnits="userSpaceOnUse"><stop offset="0" stop-color="#0a0b09"/><stop offset="1" stop-color="#e00d1a"/></linearGradient><radialGradient id="Degradado_sin_nombre_3" cx="306.07" cy="1288.69" r="433.11" gradientTransform="translate(0 -979)" gradientUnits="userSpaceOnUse"><stop offset="0" stop-color="#aec714"/><stop offset="1"/></radialGradient><linearGradient id="Degradado_sin_nombre_4-2" x1="356.73" y1="1091.57" x2="9.81" y2="1231.73" xlink:href="#Degradado_sin_nombre_4"/><radialGradient id="radial-gradient" cx="182.91" cy="1161.83" r="135.26" gradientTransform="translate(0 -979)" gradientUnits="userSpaceOnUse"><stop offset="0.11" stop-color="#fbb03b"/><stop offset="0.5" stop-color="#be0d17"/><stop offset="0.91" stop-color="#2e0000"/><stop offset="1" stop-opacity="0"/></radialGradient><linearGradient id="Degradado_sin_nombre_6" x1="58.7" y1="97.19" x2="282.98" y2="332.76" gradientUnits="userSpaceOnUse"><stop offset="0" stop-color="#fff"/><stop offset="0.11" stop-color="#fbfbfb"/><stop offset="0.23" stop-color="#eee"/><stop offset="0.36" stop-color="#d8d8d8"/><stop offset="0.49" stop-color="#bababa"/><stop offset="0.57" stop-color="#a3a3a3"/><stop offset="1" stop-color="#fff"/></linearGradient><linearGradient id="Degradado_sin_nombre_2" x1="49.82" y1="130.65" x2="119.97" y2="130.65" gradientUnits="userSpaceOnUse"><stop offset="0" stop-color="#fff"/><stop offset="0.17" stop-color="#fcfcfc"/><stop offset="0.28" stop-color="#f4f4f4"/><stop offset="0.37" stop-color="#e5e5e5"/><stop offset="0.45" stop-color="#d0d0d0"/><stop offset="0.53" stop-color="#b5b5b5"/><stop offset="0.57" stop-color="#a3a3a3"/><stop offset="0.59" stop-color="#ababab"/><stop offset="0.71" stop-color="#cfcfcf"/><stop offset="0.82" stop-color="#e9e9e9"/><stop offset="0.92" stop-color="#f9f9f9"/><stop offset="1" stop-color="#fff"/></linearGradient><linearGradient id="Degradado_sin_nombre_6-2" x1="90.56" y1="56.83" x2="322.53" y2="300.47" xlink:href="#Degradado_sin_nombre_6"/><linearGradient id="Degradado_sin_nombre_2-2" x1="128.08" y1="125.45" x2="193.03" y2="125.45" xlink:href="#Degradado_sin_nombre_2"/><linearGradient id="Degradado_sin_nombre_6-3" x1="130.44" y1="20.68" x2="339.6" y2="240.37" xlink:href="#Degradado_sin_nombre_6"/><linearGradient id="Degradado_sin_nombre_2-3" x1="204.4" y1="109.37" x2="229.34" y2="109.37" xlink:href="#Degradado_sin_nombre_2"/><linearGradient id="Degradado_sin_nombre_6-4" x1="151.53" y1="-20.76" x2="392.25" y2="232.08" xlink:href="#Degradado_sin_nombre_6"/><linearGradient id="Degradado_sin_nombre_2-4" x1="238.99" y1="110.2" x2="315.97" y2="110.2" xlink:href="#Degradado_sin_nombre_2"/><linearGradient id="Degradado_sin_nombre_6-5" x1="20.7" y1="121.71" x2="245.79" y2="358.13" xlink:href="#Degradado_sin_nombre_6"/><linearGradient id="Degradado_sin_nombre_2-5" x1="64.29" y1="244.49" x2="176.08" y2="244.49" xlink:href="#Degradado_sin_nombre_2"/><linearGradient id="Degradado_sin_nombre_6-6" x1="55.09" y1="84.88" x2="279.53" y2="320.63" xlink:href="#Degradado_sin_nombre_6"/><linearGradient id="Degradado_sin_nombre_2-6" x1="188.06" y1="236.6" x2="210.31" y2="236.6" xlink:href="#Degradado_sin_nombre_2"/><linearGradient id="Degradado_sin_nombre_6-7" x1="86" y1="48.33" x2="308.39" y2="281.92" xlink:href="#Degradado_sin_nombre_6"/><linearGradient id="Degradado_sin_nombre_2-7" x1="222.57" y1="228.99" x2="297.03" y2="228.99" xlink:href="#Degradado_sin_nombre_2"/><radialGradient id="radial-gradient-2" cx="160.69" cy="-2119.47" r="199.87" gradientTransform="matrix(0.91, 0, 0, -0.15, 37.27, 61.96)" gradientUnits="userSpaceOnUse"><stop offset="0.22" stop-color="#010202"/><stop offset="0.91" stop-color="#010202" stop-opacity="0"/></radialGradient><radialGradient id="radial-gradient-3" cx="140.2" cy="371.2" r="57.48" gradientTransform="translate(0 222.72) scale(1 0.4)" gradientUnits="userSpaceOnUse"><stop offset="0"/><stop offset="1" stop-opacity="0"/></radialGradient><linearGradient id="linear-gradient" x1="330.96" y1="341.05" x2="365.48" y2="415.07" gradientTransform="matrix(0.5, 0.86, -0.86, 0.5, 305.5, -154.54)" gradientUnits="userSpaceOnUse"><stop offset="0" stop-color="#212121"/><stop offset="1" stop-color="#424242"/></linearGradient><linearGradient id="GradientFill_7" x1="374.67" y1="403.9" x2="322.85" y2="379.74" gradientTransform="matrix(0.5, 0.86, -0.86, 0.5, 305.5, -154.54)" gradientUnits="userSpaceOnUse"><stop offset="0" stop-color="#fff"/><stop offset="1" stop-color="#d0d2d3"/></linearGradient><linearGradient id="linear-gradient-2" x1="145.13" y1="414.91" x2="210.76" y2="381.21" gradientTransform="translate(169.56 -83.4) rotate(27.1)" gradientUnits="userSpaceOnUse"><stop offset="0" stop-color="#383838"/><stop offset="1" stop-color="#0d0d0d"/></linearGradient><radialGradient id="radial-gradient-4" cx="353.78" cy="400.54" fx="341.0640652632811" fy="423.09914268059015" r="71.02" gradientTransform="matrix(0.5, 0.86, -0.86, 0.5, 305.5, -154.54)" gradientUnits="userSpaceOnUse"><stop offset="0" stop-color="#363636"/><stop offset="1" stop-color="#121212"/></radialGradient><linearGradient id="linear-gradient-3" x1="218.34" y1="419.77" x2="122.39" y2="375.03" gradientTransform="translate(169.56 -83.4) rotate(27.1)" gradientUnits="userSpaceOnUse"><stop offset="0" stop-color="#c4c4c4"/><stop offset="1" stop-color="#fcffff"/></linearGradient><linearGradient id="linear-gradient-4" x1="345.97" y1="452.69" x2="398.98" y2="353.01" gradientTransform="matrix(0.5, 0.86, -0.86, 0.5, 305.5, -154.54)" gradientUnits="userSpaceOnUse"><stop offset="0" stop-color="#1f1f1f"/><stop offset="0.29" stop-color="#424242"/><stop offset="1"/></linearGradient><linearGradient id="GradientFill_10" x1="164.19" y1="459.82" x2="211.46" y2="362.92" gradientTransform="translate(169.56 -83.4) rotate(27.1)" gradientUnits="userSpaceOnUse"><stop offset="0" stop-color="#a6a8ab"/><stop offset="0.28" stop-color="#fbfbfb"/><stop offset="0.65" stop-color="#bdbfc1"/><stop offset="1" stop-color="#6d6e70"/></linearGradient><radialGradient id="radial-gradient-5" cx="208.44" cy="361.88" r="72.85" gradientTransform="matrix(0.99, 0.36, -0.14, 0.38, 56.12, 152.73)" gradientUnits="userSpaceOnUse"><stop offset="0"/><stop offset="0.86" stop-opacity="0.38"/><stop offset="1" stop-opacity="0"/></radialGradient><linearGradient id="GradientFill_11" x1="469.51" y1="365.69" x2="353.7" y2="443.81" gradientTransform="matrix(-0.96, -0.29, -0.29, 0.96, 736.45, 89.28)" gradientUnits="userSpaceOnUse"><stop offset="0" stop-color="#c4262e"/><stop offset="0.66" stop-color="#ec1c24"/><stop offset="1" stop-color="#c7252d"/></linearGradient><linearGradient id="GradientFill_7-2" x1="416.29" y1="420.58" x2="422.37" y2="362.73" gradientTransform="matrix(-0.96, -0.29, -0.29, 0.96, 736.45, 89.28)" xlink:href="#GradientFill_7"/><linearGradient id="GradientFill_11-2" x1="183.02" y1="347.89" x2="254.54" y2="347.89" gradientTransform="matrix(1, 0, 0, 1, 0, 0)" xlink:href="#GradientFill_11"/><linearGradient id="GradientFill_7-3" x1="415.34" y1="429.9" x2="422.36" y2="363.12" gradientTransform="matrix(-0.96, -0.29, -0.29, 0.96, 736.45, 89.28)" xlink:href="#GradientFill_7"/><linearGradient id="GradientFill_14" x1="474.71" y1="420.66" x2="358.9" y2="414.59" gradientTransform="matrix(-0.96, -0.29, -0.29, 0.96, 736.45, 89.28)" gradientUnits="userSpaceOnUse"><stop offset="0" stop-color="#7d2b2e"/><stop offset="0.29" stop-color="#ec1c24"/><stop offset="1" stop-color="#562828"/></linearGradient><linearGradient id="GradientFill_10-2" x1="472.11" y1="426.35" x2="354.67" y2="416.08" gradientTransform="matrix(-0.96, -0.29, -0.29, 0.96, 736.45, 89.28)" xlink:href="#GradientFill_10"/></defs><title>sw-logo-roulette-coins</title><path class="cls-1" d="M192,.25C292.88,5.28,370.6,91.18,365.57,192S274.63,370.6,173.78,365.41c-101-5-178.73-90.94-173.53-191.79C5.28,72.77,91.18-4.95,192,.25Z"/><path class="cls-2" d="M192,1.82c99.91,5,176.84,90.15,171.81,190.05S273.69,368.71,173.78,363.68s-177-90-172-189.9A181.25,181.25,0,0,1,192,1.82Z"/><path class="cls-3" d="M191.4,13c93.77,4.72,166,84.64,161.27,178.41S268,357.39,174.25,352.67,8.27,268,13,174.25,97.63,8.27,191.4,13Z"/><path class="cls-4" d="M167.8,57l-2-17.15h0A139.25,139.25,0,0,1,190,39.11l-.79,17.3a122.52,122.52,0,0,0-21.4.63Z"/><path class="cls-5" d="M146.72,61.45l-4.88-16.52h0a141.24,141.24,0,0,1,23.76-4.88l2.05,17.15a123.16,123.16,0,0,0-20.93,4.25Z"/><path class="cls-5" d="M108.33,80.48l-10.22-14h0A147.38,147.38,0,0,1,118.87,53.9l7.71,15.41a116.6,116.6,0,0,0-18.25,11.17Z"/><path class="cls-5" d="M78.44,111.16l-14.16-9.75h0A149.28,149.28,0,0,1,79.7,82.69L92.13,94.8a106,106,0,0,0-13.69,16.36Z"/><path class="cls-5" d="M60.5,150l-16.67-4.4h0a135.4,135.4,0,0,1,8.33-22.81L67.9,130a116.41,116.41,0,0,0-7.4,20Z"/><path class="cls-5" d="M56.57,192.66l-17.15,1.26h0a137.88,137.88,0,0,1,.16-24.23l17.15,1.57a121.28,121.28,0,0,0-.16,21.4Z"/><path class="cls-5" d="M67.11,234.2l-15.73,6.92h0a141.1,141.1,0,0,1-7.87-23l16.68-4.25a106.44,106.44,0,0,0,6.92,20.3Z"/><path class="cls-5" d="M90.71,269.91l-12.59,11.8h0a143.84,143.84,0,0,1-15.1-19l14.32-9.59a148.81,148.81,0,0,0,13.37,16.83Z"/><path class="cls-5" d="M125,295.55,117.14,311h0a151.35,151.35,0,0,1-20.61-12.9l10.39-13.84A116.93,116.93,0,0,0,125,295.55Z"/><path class="cls-5" d="M165.91,308.46l-2.36,17.14h0a133.85,133.85,0,0,1-23.75-5.34L145,303.74a116.14,116.14,0,0,0,20.92,4.72Z"/><path class="cls-5" d="M208.71,306.88l3.46,17h0a127.39,127.39,0,0,1-24.07,2.84l-.63-17.31a109.86,109.86,0,0,0,21.24-2.52Z"/><path class="cls-5" d="M248.51,291.31l9,14.79h0A156.46,156.46,0,0,1,235.77,317l-6.29-16.05a134.6,134.6,0,0,0,19-9.59Z"/><path class="cls-5" d="M280.92,263.14l13.38,11h0a137.65,137.65,0,0,1-17,17.46L266,278.56a125.31,125.31,0,0,0,14.94-15.42Z"/><path class="cls-5" d="M302,226l16.2,5.83h0a147,147,0,0,1-10.23,22L293,245.37A120.4,120.4,0,0,0,302,226Z"/><path class="cls-5" d="M309.56,183.85l17.3.16h0a137.08,137.08,0,0,1-2.2,24.23l-17-3a121.45,121.45,0,0,0,1.89-21.4Z"/><path class="cls-5" d="M302.63,141.53,319,135.86h0a145.05,145.05,0,0,1,6,23.6l-17,2.84a142.51,142.51,0,0,0-5.35-20.77Z"/><path class="cls-5" d="M282,103.93l13.53-10.7h0a142.15,142.15,0,0,1,13.54,20.29L294,121.86a121.87,121.87,0,0,0-12-17.93Z"/><path class="cls-5" d="M250.09,75.45l9.12-14.63h0a150,150,0,0,1,19.51,14.63l-11.48,12.9a117.4,117.4,0,0,0-17.15-12.9Z"/><path class="cls-6" d="M189.2,56.26,190.14,39h0a150,150,0,0,1,24.07,3.3l-3.77,16.84a155.72,155.72,0,0,0-21.24-2.83Z"/><path class="cls-6" d="M126.74,69.31,119,53.9h0a153.79,153.79,0,0,1,22.66-9l4.87,16.52a118.11,118.11,0,0,0-19.82,7.86Z"/><path class="cls-6" d="M92.13,94.49,79.7,82.37h0A143.93,143.93,0,0,1,98.11,66.48l10.22,14a113,113,0,0,0-16.2,14Z"/><path class="cls-6" d="M67.9,129.73l-15.74-7.24h0a154.06,154.06,0,0,1,12-21.08l14.32,9.75A120.13,120.13,0,0,0,67.9,129.73Z"/><path class="cls-6" d="M56.73,171.11l-17.15-1.58h0a147.75,147.75,0,0,1,4.25-23.91L60.5,150a119.3,119.3,0,0,0-3.77,21.09Z"/><path class="cls-6" d="M60,213.9l-16.68,4.25h0a143.69,143.69,0,0,1-3.93-23.92l17.15-1.41A143.74,143.74,0,0,0,60,213.9Z"/><path class="cls-6" d="M77.34,253.08,63,262.67h0a140,140,0,0,1-11.64-21.24l15.73-7.08a144.64,144.64,0,0,0,10.23,18.73Z"/><path class="cls-6" d="M106.76,284.23,96.37,298.07h0a138,138,0,0,1-18.09-16.2l12.59-11.8a126.59,126.59,0,0,0,15.89,14.16Z"/><path class="cls-6" d="M144.83,303.74l-5.19,16.52h0a135,135,0,0,1-22.5-9.29L125,295.55a122.17,122.17,0,0,0,19.82,8.19Z"/><path class="cls-6" d="M187.31,309.56l.63,17.3h0a136.14,136.14,0,0,1-24.23-1.26l2.36-17.14a136.64,136.64,0,0,0,21.24,1.1Z"/><path class="cls-6" d="M229.32,300.75l6.29,16h0a141.31,141.31,0,0,1-23.28,6.93l-3.46-16.84a126.38,126.38,0,0,0,20.45-6.13Z"/><path class="cls-6" d="M266,278.56l11.32,13.06h0a142.18,142.18,0,0,1-19.66,14.32l-9-14.79A131.18,131.18,0,0,0,266,278.56Z"/><path class="cls-6" d="M293,245.52,308,254h0a140.14,140.14,0,0,1-13.68,20l-13.38-11A126.78,126.78,0,0,0,293,245.52Z"/><path class="cls-6" d="M307.67,205.25l17,3h0a143.49,143.49,0,0,1-6.29,23.44l-16.21-5.82a128.34,128.34,0,0,0,5.51-20.61Z"/><path class="cls-6" d="M308,162.3l17-2.84h0a159.88,159.88,0,0,1,1.88,24.23l-17.3-.15A123.71,123.71,0,0,0,308,162.3Z"/><path class="cls-6" d="M294,121.86l15.11-8.34h0A155.52,155.52,0,0,1,319,135.71l-16.37,5.66A142,142,0,0,0,294,121.86Z"/><path class="cls-6" d="M267.24,88.35l11.48-12.9h0A159.5,159.5,0,0,1,295.4,93.07l-13.53,10.7a122.6,122.6,0,0,0-14.63-15.42Z"/><path class="cls-6" d="M231.05,65.7l6.61-16.05h0a138.3,138.3,0,0,1,21.55,11.17l-9.12,14.63a119.85,119.85,0,0,0-19-9.75Z"/><path class="cls-5" d="M210.44,59.24l3.77-16.83h0a140.75,140.75,0,0,1,23.13,7.24L230.73,65.7a105.19,105.19,0,0,0-20.29-6.46Z"/><path class="cls-7" d="M190.14,39.11l1.26-24.39c9.13.47,19.67,2.36,28.16,4.09l-5.19,23.6a125.89,125.89,0,0,0-24.23-3.3Z"/><path class="cls-8" d="M165.76,39.89l-3-24.23a192.45,192.45,0,0,1,28.47-.78L190,39.11a138.76,138.76,0,0,0-24.23.78Z"/><path class="cls-9" d="M141.84,44.93l-6.92-23.44c8.81-2.68,19.35-4.41,27.85-5.51l2.83,24.07a125.36,125.36,0,0,0-23.76,4.88Z"/><path class="cls-7" d="M119,53.74,108.17,31.87c8.19-4.09,18.25-7.55,26.59-10.23l6.93,23.13a153.79,153.79,0,0,0-22.66,9Z"/><path class="cls-9" d="M98.11,66.48,83.79,46.66a195.78,195.78,0,0,1,24.38-14.48l10.7,21.72A142.53,142.53,0,0,0,98.11,66.48Z"/><path class="cls-7" d="M79.7,82.37l-17.47-17C68.68,58.77,77,52.16,83.79,47L98.11,66.48A157.83,157.83,0,0,0,79.7,82.37Z"/><path class="cls-9" d="M64.28,101.25,44.14,87.41A190.66,190.66,0,0,1,62.39,65.54L79.7,82.37a136.47,136.47,0,0,0-15.42,18.88Z"/><path class="cls-7" d="M52.16,122.49,30,112.26A196.66,196.66,0,0,1,44.3,87.72l20,13.69a134.13,134.13,0,0,0-12.12,21.08Z"/><path class="cls-9" d="M43.83,145.46l-23.6-6.29c2.36-9,6.45-18.72,9.91-26.59l22,10.07a141,141,0,0,0-8.33,22.81Z"/><path class="cls-7" d="M39.58,169.53l-24.39-2.2c.79-9.12,3.15-19.51,5.19-27.85l23.45,6.3a128.88,128.88,0,0,0-4.25,23.75Z"/><path class="cls-9" d="M39.26,193.92l-24.38,1.89a213.53,213.53,0,0,1,.47-28.48l24.07,2.2a157.62,157.62,0,0,0-.16,24.39Z"/><path class="cls-7" d="M43.35,218.15l-23.75,6a201.75,201.75,0,0,1-4.41-28l24.07-1.89a163.09,163.09,0,0,0,4.09,23.92Z"/><path class="cls-9" d="M51.22,241.12,28.88,251a185.28,185.28,0,0,1-9-26.9l23.44-6a137.27,137.27,0,0,0,7.87,23Z"/><path class="cls-7" d="M63,262.52l-20.3,13.53c-5-7.71-9.75-17.15-13.53-25l22.19-9.75A133.62,133.62,0,0,0,63,262.52Z"/><path class="cls-9" d="M78.12,281.71,60.35,298.54A204,204,0,0,1,42.88,276.2L63,262.83a153.65,153.65,0,0,0,15.1,18.88Z"/><path class="cls-7" d="M96.37,297.91,81.74,317.42c-7.39-5.5-14.94-12.9-21.08-19l17.62-16.68a137.26,137.26,0,0,0,18.09,16.2Z"/><path class="cls-9" d="M117.14,311,106,332.68a198.53,198.53,0,0,1-23.91-15.26l14.47-19.35A142.66,142.66,0,0,0,117.14,311Z"/><path class="cls-7" d="M139.64,320.26l-7.24,23.28a207.09,207.09,0,0,1-26.11-11l11-21.56a148.17,148.17,0,0,0,22.34,9.29Z"/><path class="cls-9" d="M163.55,325.6l-3.3,24.23a192.13,192.13,0,0,1-27.69-6.45l7.24-23.12a148.49,148.49,0,0,0,23.75,5.34Z"/><path class="cls-7" d="M187.94,326.71l.79,24.38c-9.29.32-19.83-.63-28.32-1.57l3.3-23.92a153.4,153.4,0,0,0,24.23,1.11Z"/><path class="cls-9" d="M212.17,323.87l5,23.92c-9,1.89-19.66,2.67-28.16,3.14l-.78-24.22a159.45,159.45,0,0,0,23.91-2.84Z"/><path class="cls-7" d="M235.61,316.79l9,22.82a202.93,202.93,0,0,1-27.22,7.86l-4.88-23.75a133.26,133.26,0,0,0,23.13-6.93Z"/><path class="cls-9" d="M257.48,306.1,270.07,327a201.17,201.17,0,0,1-25.65,12.43L235.61,317a149.78,149.78,0,0,0,21.87-10.85Z"/><path class="cls-7" d="M277.15,291.62l16,18.41a188.64,188.64,0,0,1-23.12,16.52l-12.59-20.77a113,113,0,0,0,19.67-14.16Z"/><path class="cls-9" d="M294.3,274.16l18.88,15.57a185.66,185.66,0,0,1-20,20.14L277.3,291.62a162.63,162.63,0,0,0,17-17.46Z"/><path class="cls-7" d="M308.14,254l21.24,12.11a197.5,197.5,0,0,1-16.2,23.29l-18.73-15.26A167.48,167.48,0,0,0,308.14,254Z"/><path class="cls-9" d="M318.37,231.84l23,8.33c-3.15,8.66-8,18.1-12.12,25.65l-21.08-12a147.94,147.94,0,0,0,10.23-22Z"/><path class="cls-7" d="M324.66,208.24l24.07,4.24c-1.57,9.13-4.72,19.2-7.55,27.38l-22.81-8.18a139.54,139.54,0,0,0,6.29-23.44Z"/><path class="cls-9" d="M326.86,183.85l24.39.16c0,9.28-1.42,19.66-2.83,28.32l-23.76-4.25a135.71,135.71,0,0,0,2.2-24.23Z"/><path class="cls-7" d="M325,159.62l24.07-3.93a221.59,221.59,0,0,1,2,28.32l-24.23-.16A140.39,140.39,0,0,0,325,159.62Z"/><path class="cls-9" d="M319,135.86l23.12-8c3,8.65,5.2,19,6.77,27.53L325,159.31a147.36,147.36,0,0,0-6-23.45Z"/><path class="cls-7" d="M309.08,113.52l21.4-11.8c4.41,8,8.34,17.94,11.33,26.12L319,135.71a162.21,162.21,0,0,0-9.92-22.19Z"/><path class="cls-9" d="M295.55,93.23,314.75,78a197.45,197.45,0,0,1,15.57,23.75l-21.23,11.65a149.7,149.7,0,0,0-13.54-20.14Z"/><path class="cls-7" d="M278.88,75.45,295.24,57.2c6.92,6.14,13.84,14.16,19.35,20.77l-18.88,15.1a177.71,177.71,0,0,0-16.83-17.62Z"/><path class="cls-9" d="M259.37,60.82l12.9-20.77c7.87,4.88,16.05,11.64,22.66,17.31L278.72,75.45a148.32,148.32,0,0,0-19.35-14.63Z"/><path class="cls-7" d="M237.5,49.65,246.78,27A181.77,181.77,0,0,1,272,40.21L259.05,60.66a144.7,144.7,0,0,0-21.55-11Z"/><path class="cls-9" d="M214.21,42.25l5.35-23.91a200.24,200.24,0,0,1,27.06,8.81L237.5,49.49a174.85,174.85,0,0,0-23.29-7.24Z"/><g id="Digits"><path class="cls-10" d="M195.65,26.68l4.56-3.78-3.3-.47a1.29,1.29,0,0,0-1.57.79l-.32-.16,1.57-3.93c.16.15.32.31.32.47.16,0,.31.15.47.15l5.51.63L203.2,22l-3.46,2.67a3.58,3.58,0,0,1,3,2.52,9.53,9.53,0,0,1,.16,2.2,5.65,5.65,0,0,1-1.1,2.83,4.43,4.43,0,0,1-2.21,1.58,4.66,4.66,0,0,1-2.51.31,7,7,0,0,1-4.25-2.2l1.73-3.3.31.31a7.94,7.94,0,0,0-.31.94,2.44,2.44,0,0,0,2.36,2.68,3.07,3.07,0,0,0,1.57-.47,2.66,2.66,0,0,0,1.1-1.58V30a2.73,2.73,0,0,0-.94-2.67,4.42,4.42,0,0,0-1.57-.63Zm13.69,5.5,3.14.48c.79.15,1.26-.16,1.73-.95l.32.16-1.89,4.25c0-.32-.31-.47-.63-.47l-8-.95a20.5,20.5,0,0,0,4.72-4.25,11.7,11.7,0,0,0,2.36-3.93c0-.31.16-.47.16-.94a2.7,2.7,0,0,0-.63-2.36l-.95-.48A2.35,2.35,0,0,0,207.29,24a5.8,5.8,0,0,0-.63,1.73h-.31l-.16-3.62a9.32,9.32,0,0,1,3.3-1.1h1.58a4.12,4.12,0,0,1,3.3,2,4.29,4.29,0,0,1,.47,2v.63a5.67,5.67,0,0,1-2,3.62,18.19,18.19,0,0,1-1.73,1.58Z"/><path class="cls-10" d="M172.52,26.21a11.37,11.37,0,0,1,1.1-5,4,4,0,0,1,3.62-2.2,4.37,4.37,0,0,1,2.83.94,8.08,8.08,0,0,1,1.89,3,10,10,0,0,1,.47,3.15,9,9,0,0,1-1.1,5.19,5,5,0,0,1-3.77,2.36,4.11,4.11,0,0,1-3.78-2.2,15.81,15.81,0,0,1-1.26-5.19Zm3.31,0c.15,2.51.47,4.24,1.25,5a1.15,1.15,0,0,0,.95.63c.63,0,1.1-.94,1.41-2.52a17.75,17.75,0,0,0,.16-3.14,10.66,10.66,0,0,0-.47-3.31c-.31-1.41-.94-2.2-1.57-2.2s-1.26.94-1.42,2.52A8.38,8.38,0,0,0,175.83,26.21Z"/><path class="cls-10" d="M146.41,34.39l3.14-.63a1.7,1.7,0,0,0,1.26-1.42l.32.16-.48,4.56a1.13,1.13,0,0,0-.63-.31l-7.86,1.73a24.65,24.65,0,0,0,3-5.67,13.81,13.81,0,0,0,.94-4.4,2,2,0,0,0-.16-.95,2.56,2.56,0,0,0-1.41-2,1.31,1.31,0,0,0-1.1,0,2,2,0,0,0-1.73,1.89,3.69,3.69,0,0,0,0,1.88l-.32.16L140,25.89a8.21,8.21,0,0,1,2.68-2,2.5,2.5,0,0,1,1.42-.48,4.78,4.78,0,0,1,3.93.79,4.1,4.1,0,0,1,1.1,1.73c0,.16.16.32.16.47a6.6,6.6,0,0,1-.63,4.09,13.67,13.67,0,0,1-1.1,2.05l-1.1,1.89Zm8.18-6.3a4.07,4.07,0,0,1,2.83-2.51A3.24,3.24,0,0,1,161,27.15a4.75,4.75,0,0,1,.94,2.2,5,5,0,0,1-1.1,4.72,5.64,5.64,0,0,1-2.52,1.42,4.37,4.37,0,0,1-2.83-.32,5.91,5.91,0,0,1-2.36-2,10.69,10.69,0,0,1-1.42-3.31,1.65,1.65,0,0,0-.15-.63c-.47-3,.15-5.34,1.89-7.08a4.71,4.71,0,0,1,2.67-1.25,10.17,10.17,0,0,1,3.15-.16l.15,3.77h-.31a2.7,2.7,0,0,0-.94-1.73,1.85,1.85,0,0,0-1.58-.31c-1.26.31-1.89,1.26-2.2,2.83a18.72,18.72,0,0,0,.16,2.83Zm1.1,3.15c.63,1.89,1.41,2.67,2.36,2.52.63-.16.94-.63,1.1-1.42a5,5,0,0,0,0-2.2,5.17,5.17,0,0,0-.79-1.89,1.74,1.74,0,0,0-1.57-.79c-.63.16-1.1.63-1.26,1.73v1.58A.57.57,0,0,1,155.69,31.24Z"/><path class="cls-10" d="M123.12,38.16l2-5.5L122,33.91c-.63.32-1.1.79-.94,1.42h-.32l-.47-4.25a.94.94,0,0,0,.63.16.57.57,0,0,0,.47-.16l5.19-2,1.1,1.26L126,34.39c1.58-.48,2.83-.32,3.78.78a4.16,4.16,0,0,1,1.1,1.73,4.93,4.93,0,0,1,.31,3,5.09,5.09,0,0,1-1.1,2.52A4.76,4.76,0,0,1,128,44a7,7,0,0,1-4.72.16l-.16-3.78h.47c0,.32.16.63.16,1a2.23,2.23,0,0,0,1.42,1.26,2.67,2.67,0,0,0,1.88-.16,1.8,1.8,0,0,0,1.11-1.26,2.64,2.64,0,0,0,.15-1.89c0-.15,0-.15-.15-.47A2.73,2.73,0,0,0,126,36.9a3.64,3.64,0,0,0-1.73.32c-.16.47-.63.63-1.1.94Z"/><path class="cls-10" d="M94.64,53.27l1.11-5.83-2.84,1.74c-.63.47-.94.94-.78,1.57h-.32l-1.1-4.09a1.18,1.18,0,0,0,.63.16c.16,0,.31-.16.47-.32l4.72-3,1.26,1-.94,4.24a3.31,3.31,0,0,1,3.93.16,4.49,4.49,0,0,1,1.42,1.57,6.9,6.9,0,0,1,.94,2.84,5.19,5.19,0,0,1-.63,2.67,6.6,6.6,0,0,1-1.73,1.89,8,8,0,0,1-4.72.94l-.79-3.62h.48c.15.32.15.48.31.79A2.65,2.65,0,0,0,97.63,57a2.85,2.85,0,0,0,1.89-.47,2.31,2.31,0,0,0,1-1.42,2.67,2.67,0,0,0-.16-1.88.56.56,0,0,1-.16-.32,2.84,2.84,0,0,0-2.52-1.41,3,3,0,0,0-1.57.47,5.05,5.05,0,0,1-1.42,1.26Zm9.13-8.34A5.57,5.57,0,0,0,103,43.2l3.31-2.05c.47-.31.94-.31,1.1,0l.31-.16-1.41-3.77a.85.85,0,0,1-.48.78l-4.4,2.84a1.88,1.88,0,0,1-1.26.15c.32.48.79.95,1.26,1.73a24,24,0,0,1,2.83,6.61,5.51,5.51,0,0,1,2.05-2.51,2.49,2.49,0,0,1,1.41-.48,2.36,2.36,0,0,1,2.36,1.1,2.92,2.92,0,0,1,.32,1.11,2.73,2.73,0,0,1-.63,1.88,2.57,2.57,0,0,1-.79.63,2.27,2.27,0,0,1-1.73.32,2.49,2.49,0,0,1-1.57-1.26.58.58,0,0,1-.16-.47h-.32l.48,3.62a7.3,7.3,0,0,0,4.56-1,5.06,5.06,0,0,0,2.36-3.3,5.15,5.15,0,0,0-.47-3.78A5.36,5.36,0,0,0,109,42.72a4.91,4.91,0,0,0-3.46.79A3.46,3.46,0,0,0,103.77,44.93Z"/><path class="cls-10" d="M72.77,61.45l7.71,8.81a5.18,5.18,0,0,0,1.11.94,1.36,1.36,0,0,0,1.1-.16l.31.48L78.91,75l-.31-.47c.31-.48.47-.79.31-1.26A10.68,10.68,0,0,0,78,71.83l-4.88-5.51c-.79-.94-1.42-1.1-1.89-.78l-.31.31-.48-.31,2.36-4.09Zm14.48,2,.16-2V59.09A6.93,6.93,0,0,0,86,55.15c-.16-.15-.16-.31-.47-.31a3.59,3.59,0,0,0-1.89-.94A4.45,4.45,0,0,0,79.85,55l-1.1,1.1a11.11,11.11,0,0,0-1.41,3.14l2.83,2.21.16-.32a4.13,4.13,0,0,1-1-1.57A2.13,2.13,0,0,1,80,57c.32-.31.63-.31.95-.47a2.1,2.1,0,0,1,2.2,1.1c.16.32.47.47.63.79a12.06,12.06,0,0,1,1.41,4.25,28.5,28.5,0,0,1,.16,6.45l6-5.35a.69.69,0,0,1,.79-.16L90.24,59.4l-.32.16a1.45,1.45,0,0,1-.47,1.89Z"/><path class="cls-10" d="M66.33,89.45c-.32,0-.48,0-.63.32l-5,6.29a26.4,26.4,0,0,0-1.1-6.29,11.19,11.19,0,0,0-2.05-3.93l-.62-.63a2.41,2.41,0,0,0-2.36-.63,1.51,1.51,0,0,0-.79.63,2.34,2.34,0,0,0-.16,2.67,9.08,9.08,0,0,0,1.1,1.42l-.15.31-3.31-1.73a7.31,7.31,0,0,1,.79-3.3,7.87,7.87,0,0,1,.79-1.26,3.78,3.78,0,0,1,3.46-1.73,5,5,0,0,1,2,.63c.16.15.32.15.47.31a6.34,6.34,0,0,1,2,3.62c.16.79.31,1.57.47,2.36v1.73l2.05-2.52a1.65,1.65,0,0,0,.15-1.88l.32-.16Zm6-8.33a7.8,7.8,0,0,1-1.41,2.51,5,5,0,0,1-3.31,2.21,4,4,0,0,1-3-.79,3.53,3.53,0,0,1-1.1-1.42A3.77,3.77,0,0,1,63.81,80a3.37,3.37,0,0,1-2.2.79,2.34,2.34,0,0,1-2.21-.63,2.88,2.88,0,0,1-1.1-1.57c-.47-1.26,0-2.83,1.26-4.41,1.1-1.57,2.36-2.2,3.78-2a4.62,4.62,0,0,1,1.57.63A4.06,4.06,0,0,1,66,74a2.6,2.6,0,0,1,0,3,3.69,3.69,0,0,1,5.19,0A3.65,3.65,0,0,1,72.3,81.12Zm-8-4.72a4.14,4.14,0,0,0-.79-1,3.13,3.13,0,0,0-1.41-.78,1.76,1.76,0,0,0-1.26.47,1.17,1.17,0,0,0-.32.78,2.44,2.44,0,0,0,1.11,1.89A7.07,7.07,0,0,0,63,78.6a1.8,1.8,0,0,0,1.26-.47A1.72,1.72,0,0,0,64.28,76.4Zm6,5.35A3.5,3.5,0,0,0,69,79.39a3,3,0,0,0-2.52-1c-.31,0-.63.32-.78.47a1.64,1.64,0,0,0,0,2,2.76,2.76,0,0,0,.94,1.41,2.83,2.83,0,0,0,1.73.79,2.67,2.67,0,0,0,1.57-.47A1.31,1.31,0,0,0,70.26,81.75Z"/><path class="cls-10" d="M44.77,100.94l-2.67,4.72c-.48.78-.32,1.41.15,1.73l-.31.31-3.31-3a.8.8,0,0,0,.79-.63l2.83-5c.32-.63.32-1.1-.15-1.42h0l.94.48a7.7,7.7,0,0,1,2.52,2,13.25,13.25,0,0,1,2,2.52c.95,1.1,1.58,1.89,2,2.51a8,8,0,0,0,2.67,2,2.3,2.3,0,0,1,.47.31l.48.32-2.05,3.62a12.32,12.32,0,0,1-4.09-5.19L46,103.61A5.31,5.31,0,0,0,44.77,100.94Z"/><path class="cls-10" d="M37.38,136l1.1-3c.31-.63,0-1.26-.48-1.89l.32-.15,3.62,2.83c-.32,0-.47.16-.63.47l-2.68,7.55a26.24,26.24,0,0,0-3.14-5.5,12,12,0,0,0-3.31-3.15,1.16,1.16,0,0,0-.78-.31,2.72,2.72,0,0,0-2.52.15,1.61,1.61,0,0,0-.63.79,2.32,2.32,0,0,0,.79,2.52,3.27,3.27,0,0,0,1.57.94v.32L27,137a8.73,8.73,0,0,1-.31-3.47,5.47,5.47,0,0,1,.31-1.57,4,4,0,0,1,2.68-2.83,5.09,5.09,0,0,1,2.2,0c.16,0,.31.16.47.16a7.08,7.08,0,0,1,3.15,2.67c.47.63.78,1.26,1.26,2l.63,2Zm1.25-13.69c2,.79,3.31,1.73,3.78,3.15a3.16,3.16,0,0,1,0,1.73c-.16.63-.63,1-1.26,1.26a3.06,3.06,0,0,1-2-.16l-.16.32,3.3,1.89a20.68,20.68,0,0,0,1.73-3,7.74,7.74,0,0,0,.48-2.52,4.78,4.78,0,0,0-.79-2.52A8.56,8.56,0,0,0,39,119a9.8,9.8,0,0,0-3.62-.63,4.79,4.79,0,0,0-4.88,3.46,5.21,5.21,0,0,0-.15,2.68,5.54,5.54,0,0,0,3.61,3.62,8.33,8.33,0,0,1,1.11.31,3.75,3.75,0,0,0,2.67-.47,3.33,3.33,0,0,0,1.57-1.73,4,4,0,0,0-.63-3.94Zm-2.83-.63a3.6,3.6,0,0,1,1.73,1.11,1.59,1.59,0,0,1,.47,1.57c-.15.63-.62.94-1.41.94a5.1,5.1,0,0,1-2.05-.31,5.56,5.56,0,0,1-1.88-1.1c-.63-.63-.79-1.1-.63-1.58s.78-.94,1.57-.94A3.77,3.77,0,0,1,35.8,121.7Z"/><path class="cls-10" d="M20.24,158.47l11.29,2.93a2.18,2.18,0,0,0,1.41.11,1.58,1.58,0,0,0,.86-.88l.46.19-1.37,5.42-.45-.19a1.46,1.46,0,0,0-.53-1.31,6.66,6.66,0,0,0-1.54-.59l-7.12-1.81c-1.24-.26-1.88-.15-1.93.48l0,.47-.63,0-.42-4.77Zm8.34-5.82a3.49,3.49,0,0,1-1.39,1.63,3,3,0,0,1-2.39.29,3.77,3.77,0,0,1-1.65-1.08c-1-1-1.22-2.62-.75-4.63A4.45,4.45,0,0,1,25,145.43a3.42,3.42,0,0,1,1.75-.18,2.85,2.85,0,0,1,1.52.75,3.09,3.09,0,0,1,1.2,2.78,3.61,3.61,0,0,1,4.74-2.16A4.06,4.06,0,0,1,37,150a8.19,8.19,0,0,1-.22,2.82,5.71,5.71,0,0,1-2.15,3.31,3.52,3.52,0,0,1-3,.55,5.7,5.7,0,0,1-1.67-.76,3.3,3.3,0,0,1-1.33-3.26Zm-2.76-1a2.63,2.63,0,0,0,1.58,0,1.41,1.41,0,0,0,1-.87,1.75,1.75,0,0,0-.66-1.63,7.28,7.28,0,0,0-1.06-.55,3.2,3.2,0,0,0-1.73-.14,1.43,1.43,0,0,0-1,.87,1.4,1.4,0,0,0,.09.8,2.29,2.29,0,0,0,1.78,1.56Zm6.48,1.92a3.51,3.51,0,0,0,1.89,0,1.8,1.8,0,0,0,1.2-1.17,2.12,2.12,0,0,0-.09-1c-.25-.8-1-1.18-2.08-1.58a3.44,3.44,0,0,0-2.71.27c-.34.29-.5.43-.53.74-.22.78.06,1.27.95,2C31.07,153.16,31.68,153.36,32.3,153.57Z"/><path class="cls-10" d="M30.14,187.15v-3.3a1.51,1.51,0,0,0-1.1-1.57l.15-.32,4.41,1.42c-.31.16-.31.31-.31.63v8a23.41,23.41,0,0,0-4.88-4.09,12.28,12.28,0,0,0-4.09-1.73h-.95a2.77,2.77,0,0,0-2.36.94,2.36,2.36,0,0,0-.31.95c0,.94.47,1.57,1.57,2.2a3.06,3.06,0,0,0,1.73.32l.16.31-3.62.63a6.23,6.23,0,0,1-1.41-3.15,5.24,5.24,0,0,1-.16-1.57,4.17,4.17,0,0,1,1.57-3.62,4,4,0,0,1,2.05-.79h.47A6.33,6.33,0,0,1,27,184a8.09,8.09,0,0,1,1.73,1.57l1.42,1.57Zm0-11.32v-3.15a1.51,1.51,0,0,0-1.1-1.57l.15-.32,4.41,1.42c-.31.16-.31.31-.31.63v8a23.41,23.41,0,0,0-4.88-4.09A12.28,12.28,0,0,0,24.32,175h-.95A2.77,2.77,0,0,0,21,176a2.36,2.36,0,0,0-.31,1c0,.94.47,1.57,1.57,2.2a3.15,3.15,0,0,0,1.73.31l.16.32-3.62.63a6.27,6.27,0,0,1-1.41-3.15,5.24,5.24,0,0,1-.16-1.57,4.17,4.17,0,0,1,1.57-3.62,4,4,0,0,1,2.05-.79h.47A6.33,6.33,0,0,1,27,172.84a8.09,8.09,0,0,1,1.73,1.57Z"/><path class="cls-10" d="M28.41,205.88a3.77,3.77,0,0,1,2.36,3,3.24,3.24,0,0,1-.47,2.36A5.08,5.08,0,0,1,28.09,213c-.31.15-.63.15-1.1.31a5.28,5.28,0,0,1-4.88-1.42,5.62,5.62,0,0,1-1.25-2.36,4.94,4.94,0,0,1,2.51-5.34,9.91,9.91,0,0,1,3.46-1.26,8.77,8.77,0,0,1,5.83.63,5,5,0,0,1,1.88,1.73,8.15,8.15,0,0,1,.79,2.36,12.47,12.47,0,0,1,0,3.46H31.55v-.32a3.53,3.53,0,0,0,1.89-.94,1.77,1.77,0,0,0,.47-1.73,3.62,3.62,0,0,0-.78-1.57,6.84,6.84,0,0,0-4.72-.63Zm-2.83.94a4,4,0,0,0-2,.79,1.9,1.9,0,0,0-.94,1.57c.15.63.47.94,1.41,1.1a5.13,5.13,0,0,0,2.21,0,7.74,7.74,0,0,0,2-.63c.63-.47.94-.94.79-1.57a1.76,1.76,0,0,0-1.1-1.26A5.85,5.85,0,0,0,25.58,206.82Z"/><path class="cls-10" d="M37.69,241.75l-5.51-2.36,1.11,3.14a1.45,1.45,0,0,0,1.41,1.11V244l-4.25.31a.75.75,0,0,0,.16-.47.58.58,0,0,0-.16-.47l-1.88-5.19,1.25-.94,3.94,1.88a3.31,3.31,0,0,1,.94-3.77,5.36,5.36,0,0,1,1.89-1.1,6.39,6.39,0,0,1,3-.32,4.36,4.36,0,0,1,2.36,1.26,4.33,4.33,0,0,1,1.41,2.05,7.88,7.88,0,0,1,0,4.71H39.58l.16-.47c.31,0,.62-.15.94-.15a3.15,3.15,0,0,0,1.42-1.42,4,4,0,0,0,0-1.89A2.83,2.83,0,0,0,41,236.71a2.69,2.69,0,0,0-1.88-.31c-.16,0-.16,0-.48.16a2.49,2.49,0,0,0-1.88,2,3.44,3.44,0,0,0,.15,1.73c.32.47.48.95.79,1.42ZM25.42,229.16l11-3.93a3,3,0,0,0,1.26-.63,1,1,0,0,0,.16-1.1l.47-.16,1.89,5.35-.47.16c-.32-.48-.63-.79-1.11-.79a9.78,9.78,0,0,0-1.57.31l-6.92,2.52c-1.1.47-1.57,1-1.42,1.58,0,.15.16.31.16.47l-.47.31Z"/><path class="cls-10" d="M41,265l10.23-5.66a2.28,2.28,0,0,0,1.1-.95,1.32,1.32,0,0,0,0-1.1l.47-.31,2.68,4.88-.47.31a1.06,1.06,0,0,0-1.26-.47,7.39,7.39,0,0,0-1.58.63L45.71,266c-1.1.63-1.41,1.1-1.1,1.73.16.15.16.31.32.31l-.47.32L41,265Zm3.31-12.58,1.73,3c-2.2-.16-3.93-.16-5-.16a8.45,8.45,0,0,0-4.24.94,3.52,3.52,0,0,0-1.58,1.42,9.54,9.54,0,0,1,3.78.78,4.33,4.33,0,0,1,.79-.94c.78-.47,2-.63,4.09-.79a18.89,18.89,0,0,0,2.2-.15,9.69,9.69,0,0,0,2-.48c.16-.15.32-.15.32-.31-.32,0-.47-.31-.79-.63l-2-3.62,1.26-.63c.94-.47,1.57-.47,2,.16l.47-.31-2.51-4.57-.48.32c.32.63,0,1.1-.94,1.73l-1.26.63a1.73,1.73,0,0,0-.47-.79c-.16-.31,0-.47.31-.63v-.16l-3,.95.16.31a1.3,1.3,0,0,1,1.26.79l.31.63L35.33,254v.16a2.67,2.67,0,0,1,1.89-.32,2.53,2.53,0,0,1,2.52,1.42Z"/><path class="cls-10" d="M62.39,271.17a4.08,4.08,0,0,0-4.09-1.57,9.13,9.13,0,0,0-4.72,2.2,10.1,10.1,0,0,0-2.2,2.36,5.75,5.75,0,0,0-1.26,3.3,4.27,4.27,0,0,0,.94,3A4.33,4.33,0,0,0,55,282a10.86,10.86,0,0,0,4.56-2.21,10.41,10.41,0,0,0,3.3-4.24A4.34,4.34,0,0,0,62.39,271.17ZM61,273.37c-.32,1.1-1.58,2.36-3.47,3.94a6.66,6.66,0,0,1-2.67,1.57c-1.42.79-2.36.79-2.83.31s-.16-1.41.78-2.51c.63-.63,1.42-1.42,2.36-2.21a17.55,17.55,0,0,1,2.68-1.88c1.57-.79,2.52-.79,3-.32A1,1,0,0,1,61,273.37Zm6.29,4.57c-.32-.32-.32-.48-.16-.79l-4.25,1.73v.31a1.47,1.47,0,0,1,1.89.48l2,2.51-2-.15a11.66,11.66,0,0,0-2.36-.16,6.16,6.16,0,0,0-3.93,1.26c-.16,0-.32.16-.47.31a3.89,3.89,0,0,0-1.1,1.89,4.35,4.35,0,0,0,.94,3.78,3.72,3.72,0,0,0,1.1,1.1,8.48,8.48,0,0,0,3.15,1.57L64.44,289l-.32-.16a7.22,7.22,0,0,1-1.57.79A2.12,2.12,0,0,1,60,289a1.39,1.39,0,0,1-.47-.94,2.36,2.36,0,0,1,1.1-2.21,3.1,3.1,0,0,0,.79-.47,10.49,10.49,0,0,1,4.4-1.26,22.27,22.27,0,0,1,6.45.16Z"/><path class="cls-10" d="M72.15,303.74l7.7-8.81a4,4,0,0,0,.79-1.26,1,1,0,0,0-.31-1.1l.31-.48,4.25,3.78-.32.47a1.55,1.55,0,0,0-1.41-.16,3.63,3.63,0,0,0-1.26,1.11L77,302.79c-.78.95-.94,1.58-.47,2,.16.15.32.15.32.31l-.32.47Z"/><path class="cls-10" d="M106.92,319.94l-5.67,1.57,2.83,1.73a1.23,1.23,0,0,0,1.73-.15l.16.31-3.14,2.83a.69.69,0,0,0-.16-.47c0-.16-.16-.16-.47-.31l-4.72-3,.31-1.58,4.25-1.1a3.36,3.36,0,0,1-1.57-3.62,5.43,5.43,0,0,1,.78-2,5.6,5.6,0,0,1,2.2-2.05,5.2,5.2,0,0,1,2.68-.63,4.8,4.8,0,0,1,2.52.79,6.69,6.69,0,0,1,3,3.78l-2.84,2.36-.15-.32c.15-.15.31-.47.63-.63a2,2,0,0,0,.15-1.88,3.38,3.38,0,0,0-1.1-1.42,2.05,2.05,0,0,0-1.73-.16,3.7,3.7,0,0,0-1.73,1l-.31.31a2.64,2.64,0,0,0-.16,2.83,4.68,4.68,0,0,0,1.26,1.26,11.23,11.23,0,0,1,1.26.63Zm-9.6-6h0c-.47-.31-.95-.47-1.42-.78a3.31,3.31,0,0,1-1.26-1.26,2.66,2.66,0,0,1,.16-2.84c.16-.15.16-.31.32-.31a3.05,3.05,0,0,1,1.73-.94,3.17,3.17,0,0,1,1.73.15,2.55,2.55,0,0,1,1.1,1.42,2.6,2.6,0,0,1-.16,1.89c-.16.31-.47.47-.63.63l.16.31,2.83-2.36a7.83,7.83,0,0,0-3-3.77,6.59,6.59,0,0,0-2.52-.79,5.19,5.19,0,0,0-2.67.63,5.5,5.5,0,0,0-2.2,2,7.81,7.81,0,0,0-.79,2,3.51,3.51,0,0,0,1.57,3.62L88,314.75l-.32,1.57,4.72,3c.16.16.32.32.47.32a.56.56,0,0,1,.16.47l3.15-2.83-.16-.32a1.42,1.42,0,0,1-1.73.16l-2.83-1.73Z"/><path class="cls-10" d="M124.06,335.83,128.47,325a2.93,2.93,0,0,0,.31-1.42c0-.32-.31-.63-.62-.94l.15-.48,5.19,2.05-.15.47a1.21,1.21,0,0,0-1.26.32c-.16.31-.47.78-.79,1.41l-2.67,6.77c-.47,1.1-.32,1.88.15,2,.16,0,.32.16.48.16l-.16.47Zm-4.4-9a4.1,4.1,0,0,1-3.78.48c-1.41-.48-2-1.58-2.2-3.31a6.4,6.4,0,0,1,.47-2.36,5.52,5.52,0,0,1,3.46-3.3,4.46,4.46,0,0,1,2.84.31,4.29,4.29,0,0,1,2.2,1.89,5,5,0,0,1,.79,3,9,9,0,0,1-.63,3.46,1.75,1.75,0,0,0-.32.63c-1.26,2.83-3.15,4.41-5.51,4.72a4.54,4.54,0,0,1-2.83-.47,12.06,12.06,0,0,1-2.67-1.58l2-3.3.32.16a3.06,3.06,0,0,0-.16,2,1.76,1.76,0,0,0,1.1,1.26c1.1.47,2.2,0,3.46-1.1a11.57,11.57,0,0,0,1.42-2.52Zm.94-3.14c.63-1.89.32-3-.63-3.46a2,2,0,0,0-1.73.47,7.15,7.15,0,0,0-1.57,3.93,1.27,1.27,0,0,0,.94,1.42c.63.31,1.26,0,2-.63a3.6,3.6,0,0,0,.79-1.26A.58.58,0,0,1,120.6,323.72Z"/><path class="cls-10" d="M154.9,333.16l-3.15-.63a1.68,1.68,0,0,0-1.73.78l-.31-.15,2.36-3.94a.5.5,0,0,0,.47.48l7.87,1.73a20.76,20.76,0,0,0-5,3.93A15,15,0,0,0,152.7,339a6.3,6.3,0,0,0-.32.94,3.21,3.21,0,0,0,.48,2.52,1.37,1.37,0,0,0,.94.47,2.21,2.21,0,0,0,2.36-1.1,4.49,4.49,0,0,0,.79-1.73h.31l-.16,3.62a8.46,8.46,0,0,1-3.3.78,5,5,0,0,1-1.57-.15,3.9,3.9,0,0,1-3.15-2.36,3,3,0,0,1-.31-2.05c0-.16,0-.47.15-.47a6.88,6.88,0,0,1,2.36-3.46l1.89-1.42,1.73-1.41Zm-11.17-.32,3.3.79c-1.57,1.57-2.67,2.83-3.46,3.62a8.61,8.61,0,0,0-2,3.93,4.42,4.42,0,0,0,0,2.05,7.5,7.5,0,0,1,3.14-2.36,1.7,1.7,0,0,1-.15-1.26,12.48,12.48,0,0,1,2-3.62,7.53,7.53,0,0,0,1.26-1.73,6.13,6.13,0,0,0,1.1-1.89v-.31a1.76,1.76,0,0,1-.94.15l-4.09-.78.31-1.42c.16-.94.63-1.57,1.42-1.42l.16-.47-5-1.1-.16.47c.63.16.79.79.63,1.89l-.31,1.42c-.47-.16-.79-.16-1-.32s-.47-.31-.31-.63l-.16-.15-1.26,2.83h.32a1.19,1.19,0,0,1,1.41-.47l.79.15L139,340.39h.16a2.7,2.7,0,0,1,.94-1.57,2.53,2.53,0,0,1,2.83-.94Z"/><path class="cls-10" d="M176.93,341.81a16,16,0,0,1-2.36.31,4.54,4.54,0,0,1-3.31-1.25,5.21,5.21,0,0,1-1.25-3.94,4.29,4.29,0,0,1,1.73-3.3,5.72,5.72,0,0,1,3.93-1.42,6.47,6.47,0,0,1,4.4,1.89l-1.57,3.15-.31-.16v-.47a2.91,2.91,0,0,0-.63-2.05,3,3,0,0,0-1.58-.78,2.07,2.07,0,0,0-.94.15,2.15,2.15,0,0,0-1.57,1.26,2.26,2.26,0,0,0-.32,1.1,2.52,2.52,0,0,0,1.26,2.21,4.81,4.81,0,0,0,1.57.31,6.07,6.07,0,0,0,3.15-.94,23.41,23.41,0,0,0-1.42,6.92v2a1.37,1.37,0,0,0-.94-.47l-5.19-.16a2.23,2.23,0,0,0-1,.32l1-3.78h.31c0,.32.32.48,1,.63l3.77.16A4.76,4.76,0,0,1,176.93,341.81Z"/><path class="cls-10" d="M207.15,345.77l-1.51-12.59c-.17-.69-.17-1.2-.51-1.55a1.32,1.32,0,0,0-1.2-.52v.2l6-.83V331a1.5,1.5,0,0,0-1,1v1.26l1,7.93c.17,1.38.51,1.9,1.2,1.9a.63.63,0,0,0,.52-.17l.17.52-4.66,2.39Zm-5.31-6.95A10.57,10.57,0,0,1,201,344a3.89,3.89,0,0,1-3.47,2.5,4.09,4.09,0,0,1-3-.79,6.88,6.88,0,0,1-2.19-2.84,14.65,14.65,0,0,1-.78-3.15,9.07,9.07,0,0,1,.65-5.19,4.29,4.29,0,0,1,3.63-2.66,4.18,4.18,0,0,1,3.92,1.9,9.73,9.73,0,0,1,2,5Zm-3.15.3c-.3-2.51-.77-4.09-1.55-5a1.39,1.39,0,0,0-.94-.47c-.63.15-1.11.94-1.27,2.67a23.63,23.63,0,0,0,.14,3.15,13.4,13.4,0,0,0,.78,3.14c.46,1.42,1.09,2.05,1.88,2.06.63-.16,1.1-.94,1.27-2.67A14,14,0,0,1,198.69,339.12Z"/><path class="cls-10" d="M231.84,327.65l-3.15.94a1.57,1.57,0,0,0-1.1,1.58h-.32V325.6a.69.69,0,0,0,.79.16l7.71-2.36a23.44,23.44,0,0,0-2.52,5.82,12.46,12.46,0,0,0-.47,4.57c0,.31.16.63.16.94.31,1.1.78,1.73,1.57,1.89a1.31,1.31,0,0,0,1.1,0,2.23,2.23,0,0,0,1.58-2.05,4.09,4.09,0,0,0-.16-1.89l.31-.15,1.73,3.3a11.6,11.6,0,0,1-2.51,2.36,5.68,5.68,0,0,1-1.42.63,4.23,4.23,0,0,1-3.93-.47,3.54,3.54,0,0,1-1.26-1.73.58.58,0,0,1-.16-.47,6.29,6.29,0,0,1,.32-4.09c.31-.79.62-1.42.94-2.21l.79-2.2Zm-7.08,6.14-2.52,5.35,3.15-.95a1.26,1.26,0,0,0,1.1-1.41h.31L227,341a.6.6,0,0,0-.47-.15.61.61,0,0,0-.48.15l-5.34,1.58-.95-1.26,2.05-3.94a3.36,3.36,0,0,1-3.78-1.1,3.54,3.54,0,0,1-.94-1.88,6.43,6.43,0,0,1-.16-3,4.32,4.32,0,0,1,1.26-2.36,6.49,6.49,0,0,1,2.2-1.42,7.06,7.06,0,0,1,4.72.31l-.16,3.78-.47-.16a2,2,0,0,0-.16-.94c-.31-.79-.63-1.26-1.25-1.42a2,2,0,0,0-1.89,0,2.14,2.14,0,0,0-1.26,1.1,2.73,2.73,0,0,0-.32,1.89c0,.16,0,.16.16.47a2.72,2.72,0,0,0,2.05,2.05,2.24,2.24,0,0,0,1.73-.16,3.29,3.29,0,0,1,1.26-.78Z"/><path class="cls-10" d="M254.18,323.09a3,3,0,0,1,2,0,2.43,2.43,0,0,1,1.73,1.57,3,3,0,0,1,.32,2c-.16,1.41-1.1,2.67-3,3.61-1.73.79-3.15.95-4.25.32a3.31,3.31,0,0,1-1.26-1.26,3.07,3.07,0,0,1-.47-1.57,3,3,0,0,1,1.26-2.68c-2.05.63-3.62,0-4.72-2a3.87,3.87,0,0,1,.78-4.25,8.17,8.17,0,0,1,2.21-1.73,5.93,5.93,0,0,1,3.93-.63,4.31,4.31,0,0,1,2.52,1.89,3.63,3.63,0,0,1,.47,1.73,3.58,3.58,0,0,1-1.57,3Zm.94,2.83a2.93,2.93,0,0,0-1.1-1.26,1.3,1.3,0,0,0-1.26-.16,1.76,1.76,0,0,0-.79,1.58,2.26,2.26,0,0,0,.32,1.1,2.23,2.23,0,0,0,1.1,1.26,1.54,1.54,0,0,0,1.42.15c.15-.15.47-.31.63-.63a2.58,2.58,0,0,0-.32-2Zm-2.67-6.14a3.72,3.72,0,0,0-1.26-1.41,1.89,1.89,0,0,0-1.58-.16,1.12,1.12,0,0,0-.63.79,2.83,2.83,0,0,0,.32,2.67,3,3,0,0,0,2,1.89,2,2,0,0,0,.95-.16,1.62,1.62,0,0,0,.79-1.89A5.91,5.91,0,0,0,252.45,319.78Z"/><path class="cls-10" d="M276.52,315.07a12.89,12.89,0,0,0-1.89-4.88,10.25,10.25,0,0,0-4.09-3.46,4.05,4.05,0,0,0-4.41.31,4.89,4.89,0,0,0-1.88,4.09,9.23,9.23,0,0,0,2,4.88,10.86,10.86,0,0,0,2.2,2.36,7.61,7.61,0,0,0,3.31,1.42,4.17,4.17,0,0,0,3-.79A4.25,4.25,0,0,0,276.52,315.07Zm-2.68,2.36c-.47.47-1.41.15-2.51-.79a17.74,17.74,0,0,1-2.21-2.52,11.25,11.25,0,0,1-1.73-2.67c-.78-1.58-.94-2.52-.31-3a1.31,1.31,0,0,1,1.1,0,11,11,0,0,1,3.78,3.62c.63.94,1.25,1.73,1.73,2.51C274.32,316,274.47,317,273.84,317.43Zm11-10.86h-.32a1.49,1.49,0,0,1-.63,1.73l-2.67,2.05.63-5.83a10.38,10.38,0,0,0-1.1.79,3.29,3.29,0,0,1-1.58.63,2.84,2.84,0,0,1-2.51-1.26l-.32-.31a2.72,2.72,0,0,1-.31-1.89,2.11,2.11,0,0,1,.78-1.42,3.23,3.23,0,0,1,1.73-.47,2.17,2.17,0,0,1,1.73,1,3.53,3.53,0,0,0,.48.78h.47l-1.1-3.62a6.59,6.59,0,0,0-4.57,1.26A5.21,5.21,0,0,0,274,302a3.9,3.9,0,0,0-.47,2.67,7,7,0,0,0,1.1,2.83,4.39,4.39,0,0,0,1.57,1.42,3.31,3.31,0,0,0,3.94-.16l-.63,4.41,1.26.94,4.56-3.3c.16-.16.31-.32.47-.32s.32,0,.63,0Z"/><path class="cls-10" d="M303,294.45l-8.5-8a2.3,2.3,0,0,0-1.26-.79,1.05,1.05,0,0,0-1.1.32l-.31-.32,3.93-4.09.32.32a1.25,1.25,0,0,0-.16,1.26,3.65,3.65,0,0,0,1.1,1.25l5.35,5c.94.79,1.57,1.1,2.05.63.15-.16.15-.32.31-.32l.47.32-2.2,4.4Zm-7.87,8.18,2.05-4.4-.47-.32c0,.16-.16.16-.32.32-.47.47-1.1.31-2-.63l-5.35-5a3.64,3.64,0,0,1-1.1-1.26,1.19,1.19,0,0,1,.15-1.26l-.31-.32-3.94,4.09.32.32a1,1,0,0,1,1.1-.32,4,4,0,0,1,1.26.79Z"/><path class="cls-10" d="M311.6,272.43c-.31-.32-.47-.32-.47-.47a7.52,7.52,0,0,0-3.3-1.42,6.89,6.89,0,0,0-3.15.16,4,4,0,0,0-2.2,1.73,4.85,4.85,0,0,0-.79,2.83,4.59,4.59,0,0,0,2.52,4.09,6.77,6.77,0,0,0,2.2.95,3.21,3.21,0,0,0,3.62-1.42,3.59,3.59,0,0,0,.31-3.78,6.26,6.26,0,0,1,2.05,2c.94,1.42,1.1,2.67.31,3.62a1.63,1.63,0,0,1-1.41.78,3,3,0,0,1-1.89-.62l-.31.31,2.83,2.67a14.87,14.87,0,0,0,2.2-2.36,5,5,0,0,0,.94-2.67C315.22,276.52,314.12,274.32,311.6,272.43Zm-2.36,4.72c-.31.47-.78.63-1.57.47a5.39,5.39,0,0,1-1.89-.94,4.87,4.87,0,0,1-1.57-1.58,1.45,1.45,0,0,1-.16-1.73c.63-.78,1.73-.78,3.46.16l.47.47a7.71,7.71,0,0,1,1.11,1.1A2,2,0,0,1,309.24,277.15Zm11-11.49-.32.16a1.23,1.23,0,0,1,0,1.73l-1.89,2.83-1.41-5.82a8.14,8.14,0,0,1-.79,1.26,2.75,2.75,0,0,1-1.26,1.1,2.67,2.67,0,0,1-2.83-.31l-.31-.32a2.74,2.74,0,0,1-.95-1.73,2.82,2.82,0,0,1,.32-1.73,3.61,3.61,0,0,1,1.57-1.1,2.06,2.06,0,0,1,1.89.32c.16.15.47.47.63.63l.31-.16-2.2-3a7.59,7.59,0,0,0-3.78,2.83,5.19,5.19,0,0,0-.78,2.36,3.94,3.94,0,0,0,.47,2.68,5.82,5.82,0,0,0,2,2.35,9.5,9.5,0,0,0,1.89.79,3.38,3.38,0,0,0,3.62-1.41l.79,4.4,1.57.47,3.15-4.56c.15-.31.15-.47.31-.47.16-.16.32-.16.63-.16Z"/><path class="cls-10" d="M333.31,248l-10.69-4.88a2.93,2.93,0,0,0-1.42-.31,1,1,0,0,0-.94.63l-.48-.16,2.36-5.19.48.16a1.23,1.23,0,0,0,.31,1.26,5.61,5.61,0,0,0,1.42.78l6.76,3c1.1.47,1.73.47,2.05-.16a.58.58,0,0,0,.15-.47l.48.16-.48,5.19Zm-9.44,3.15h0c-.31.63-.31,1.1-.63,1.41a3.37,3.37,0,0,1-1.1,1.42,2.6,2.6,0,0,1-2.83.16A.48.48,0,0,0,319,254a2,2,0,0,1-1.1-1.57,3.16,3.16,0,0,1,0-1.73,2.73,2.73,0,0,1,1.25-1.42,2,2,0,0,1,1.89,0,3.42,3.42,0,0,1,.79.47l.31-.31-2.67-2.52a6.8,6.8,0,0,0-3.31,3.3,6.65,6.65,0,0,0-.47,2.52,5,5,0,0,0,.95,2.52,7.1,7.1,0,0,0,2.36,1.89,4.89,4.89,0,0,0,2,.47,3.28,3.28,0,0,0,3.31-2l1.57,4.09,1.57.16,2.36-5c.16-.32.16-.48.32-.48.15-.15.31-.15.47-.31l-3.3-2.68-.32.16a1.45,1.45,0,0,1,.32,1.73l-1.42,3Z"/><path class="cls-10" d="M336.3,215.32l3.31,4.87.78-3.14a1.49,1.49,0,0,0-.63-1.73l.32-.32,3.62,2.05a1,1,0,0,0-.47.31c0,.16-.16.32-.16.47l-1.42,5.35-1.57.16-2.2-3.78a3.54,3.54,0,0,1-3,2.68,5.36,5.36,0,0,1-2.21-.16,7.33,7.33,0,0,1-2.67-1.41,4.36,4.36,0,0,1-1.26-2.36,4.58,4.58,0,0,1,0-2.52,7.4,7.4,0,0,1,2.68-3.94l3,2.05-.32.31a1.24,1.24,0,0,0-.79-.31,2.43,2.43,0,0,0-1.88.31,3.63,3.63,0,0,0-1.11,1.58,2.44,2.44,0,0,0,.32,1.73,2.23,2.23,0,0,0,1.42,1.26,1.29,1.29,0,0,1,.47.15,3,3,0,0,0,2.83-.62,3.83,3.83,0,0,0,.79-1.58c-.16-.31,0-.78.15-1.41Zm-5.19,13.05.95-3.3c1.57,1.73,2.67,2.83,3.46,3.62a8.63,8.63,0,0,0,3.77,2.2,9.57,9.57,0,0,0,2,.16,10.23,10.23,0,0,1-2.2-3.15,3,3,0,0,1-1.26.16,9.14,9.14,0,0,1-3.46-2.2c-.95-.79-1.58-1.26-1.58-1.42a6.11,6.11,0,0,0-1.89-1.1h-.31a2,2,0,0,1,.16.94l-1.1,3.94-1.42-.32c-.94-.31-1.42-.78-1.42-1.41l-.47-.16-1.26,5,.47.16c.16-.63.79-.79,1.89-.47l1.42.31c-.16.48-.16.79-.32.95-.15.31-.31.47-.63.31l-.15.16,2.83,1.42v-.32a1.19,1.19,0,0,1-.47-1.41l.15-.79,8.19,2v-.15a13.71,13.71,0,0,1-1.58-.95,2.72,2.72,0,0,1-.78-2.83Z"/><path class="cls-10" d="M339.61,195.49a4.48,4.48,0,0,1,1.57,3.46,3.32,3.32,0,0,1-2.52,3,6,6,0,0,1-2.36.32,4.86,4.86,0,0,1-4.09-2.36,5.41,5.41,0,0,1-.63-2.83,3.75,3.75,0,0,1,1.1-2.52,5.27,5.27,0,0,1,2.68-1.73,8.42,8.42,0,0,1,3.46-.32,1.53,1.53,0,0,1,.63.16c3.15.47,5.19,1.73,6.14,3.93a4.45,4.45,0,0,1,.47,2.84,10.78,10.78,0,0,1-.79,3l-3.77-.95v-.31a2.41,2.41,0,0,0,1.88-.48,1.62,1.62,0,0,0,.79-1.41c.16-1.26-.63-2.2-2.05-3a4.76,4.76,0,0,0-2.51-.79Zm-3.31.16c-2,0-3,.47-3.14,1.57a1.52,1.52,0,0,0,.94,1.42,6.45,6.45,0,0,0,2,.63,4.09,4.09,0,0,0,2-.16c.79-.31,1.1-.63,1.1-1.26a1.9,1.9,0,0,0-1.26-1.73,4.56,4.56,0,0,0-1.57-.31C336.62,195.65,336.46,195.49,336.3,195.65Z"/><path class="cls-10" d="M334.73,165.6l.31,3.15a1.38,1.38,0,0,0,1.26,1.41l-.15.32-4.57-1.1c.32-.16.32-.32.32-.63l-.63-8a22.87,22.87,0,0,0,5.19,3.78,16.13,16.13,0,0,0,4.25,1.41h.94c1.1-.15,1.89-.47,2.21-1.1a2.42,2.42,0,0,0,.15-1.1c0-.94-.63-1.57-1.73-2a3.07,3.07,0,0,0-1.73-.16l-.16-.32,3.62-.94a8.12,8.12,0,0,1,1.73,3,5.49,5.49,0,0,1,.32,1.57,4.5,4.5,0,0,1-1.26,3.78,3.53,3.53,0,0,1-1.89.94.57.57,0,0,0-.47.16,5.76,5.76,0,0,1-3.93-1.26L336.62,167l-1.89-1.42Zm9,13.37-.47-5.35a1.39,1.39,0,0,0-1.11-1.41l.16-.47,4.41.63c-.32.15-.32.47-.32.94l.47,5.66c0,.79.32,1.1,1,1.1v.16c-.32,0-.63.16-1.1.16a7.3,7.3,0,0,1-3.15-.32c-.63-.15-1.73-.47-3.15-.94a11.3,11.3,0,0,0-3.14-.79,13.15,13.15,0,0,0-3.31-.31,1.57,1.57,0,0,0-.63.16l-.63.15-.31-4.09a10.67,10.67,0,0,1,6.29,2.05l2.36,1.57A7.84,7.84,0,0,0,343.7,179Z"/><path class="cls-10" d="M340.87,139.17l-11.33,3c-.63.15-1.1.31-1.26.63a1,1,0,0,0-.32,1.1l-.47.16-1.41-5.51.47-.16a1.19,1.19,0,0,0,1.1.79,4.35,4.35,0,0,0,1.73-.32l7.08-1.88c1.26-.32,1.73-.79,1.57-1.42,0-.16-.15-.31-.15-.47l.47-.16,2.52,4.25Zm-.16,12.74-1.42-5.19c-.15-.79-.63-1.26-1.41-1.1v-.47l4.4-.16a.89.89,0,0,0-.16.94l1.42,5.51c.16.63.47.94,1.1.94h0a2.2,2.2,0,0,1-.94.32,10.39,10.39,0,0,1-3.15.31c-.63,0-1.73-.15-3.15-.31s-2.51-.32-3.14-.32a10.61,10.61,0,0,0-3.31.32,1.52,1.52,0,0,1-.47.16l-.63.15-1.1-3.93a12.23,12.23,0,0,1,6.61.94l2.67,1.11A5.56,5.56,0,0,0,340.71,151.91Z"/><path class="cls-10" d="M320.26,116l1.25,3a1.59,1.59,0,0,0,1.58.94v.32l-4.57.47a1.17,1.17,0,0,0,.16-.79l-3.3-7.23a22.77,22.77,0,0,0,6.13,1.73,15.06,15.06,0,0,0,4.57,0c.31,0,.47-.16.78-.32a2.85,2.85,0,0,0,1.73-1.89,3.24,3.24,0,0,0-.15-1.1,2.29,2.29,0,0,0-2.36-1.26,3.54,3.54,0,0,0-1.73.48l-.16-.32,3-2a9.09,9.09,0,0,1,2.67,2.2,13.05,13.05,0,0,1,.79,1.26,4.31,4.31,0,0,1,0,3.93,3.81,3.81,0,0,1-1.57,1.57c-.16.16-.32.16-.48.32a6,6,0,0,1-4.09.16c-.78-.16-1.57-.48-2.36-.63l-1.88-.79Zm9.59,5.82a4.17,4.17,0,0,0,1.73-.47l1.58,3.46c.31.63.15,1-.16,1.1v.32l3.93-1c-.31,0-.47-.31-.63-.63L334.1,120a1.32,1.32,0,0,1,0-1.1,10.3,10.3,0,0,1-1.89.95,18.86,18.86,0,0,1-6.92,1.88,5.28,5.28,0,0,1,2.2,2.36,5.62,5.62,0,0,1,.32,1.58,2.33,2.33,0,0,1-1.26,2.2,2.92,2.92,0,0,1-1.1.32,3.29,3.29,0,0,1-1.89-.79,2.73,2.73,0,0,1-.63-.79,1.72,1.72,0,0,1,0-1.73,2.79,2.79,0,0,1,1.57-1.41.59.59,0,0,1,.48-.16V123h-3.62a6.81,6.81,0,0,0,.31,4.72,5.85,5.85,0,0,0,3,2.84,5.22,5.22,0,0,0,3.78,0,4.25,4.25,0,0,0,2.83-2.84,4.53,4.53,0,0,0-.32-3.46A3.67,3.67,0,0,0,329.85,121.86Z"/><path class="cls-10" d="M310.19,98.42l1.73,2.67a1.49,1.49,0,0,0,1.73.63V102l-4.41,1.26a.71.71,0,0,0,0-.79l-4.56-6.61a30.07,30.07,0,0,0,6.29.79,11.08,11.08,0,0,0,4.41-.79,4,4,0,0,1,.78-.47c.95-.63,1.42-1.26,1.42-2a2.18,2.18,0,0,0-2.83-1.89,7.1,7.1,0,0,0-1.73.63l-.32-.32,2.68-2.52a11.68,11.68,0,0,1,3,1.74,7.14,7.14,0,0,1,1.1,1.1,4,4,0,0,1,.63,3.93,3.3,3.3,0,0,1-1.26,1.73c-.16.16-.32.32-.47.32a8,8,0,0,1-4.09.94,11.85,11.85,0,0,1-2.36-.32Z"/><path class="cls-10" d="M290.21,74l2.2,2.36a1.62,1.62,0,0,0,1.89.32l.15.31-4.09,2c.16-.32,0-.47-.15-.79l-5.51-5.82a27.33,27.33,0,0,0,6.29-.31,11,11,0,0,0,4.25-1.58c.16-.16.47-.31.63-.63a2.57,2.57,0,0,0,.94-2.36,1.33,1.33,0,0,0-.47-.94,2.59,2.59,0,0,0-2.67-.47,4.13,4.13,0,0,0-1.58.94l-.31-.16,2.2-3a7.06,7.06,0,0,1,3.15,1.26,9.18,9.18,0,0,1,1.26,1,3.94,3.94,0,0,1,1.26,3.77,5.42,5.42,0,0,1-.95,1.89c-.16.16-.31.32-.31.47a7,7,0,0,1-3.78,1.58,12.48,12.48,0,0,1-2.36.15Zm17.14,1.73-4.24-2.36-.32.48c.16,0,.16.15.32.31.47.47.15,1.1-.63,1.89l-5.35,5c-.63.48-.95,1-1.26,1.1a1.2,1.2,0,0,1-1.26-.15l-.31.31,3.93,4.09.31-.31a1.52,1.52,0,0,1-.31-1.1A3.48,3.48,0,0,1,299,84Z"/><path class="cls-10" d="M275.89,58.93l3-4.09a2.62,2.62,0,0,0,2.83.31,4.7,4.7,0,0,0,1.57-1.1h.16l-5,6.77.62.47a1.22,1.22,0,0,0,1.42.16l.16.15-2.36,2-.16-.16a.69.69,0,0,0,0-.78,3.89,3.89,0,0,0-.79-.63l-.78,1.1c-.63.94-.79,1.57-.16,1.89l-.31.47-4.1-3,.32-.47c.63.31,1.26.15,1.89-.79l.78-1.1-3.3-2.52a1,1,0,0,0-.94-.16.53.53,0,0,0,.15-.31,5.59,5.59,0,0,1,1.73-1.26c.16,0,.79-.47,1.89-.94a15.89,15.89,0,0,0,3.46-2.36c.32-.48.48-.79.32-1.26a8.32,8.32,0,0,0,3.77-1,5.22,5.22,0,0,1-.94,1.89A10.6,10.6,0,0,1,277.62,55c-.95.47-2.52,1.1-4.56,1.88Z"/><path class="cls-10" d="M254.49,35.33,249.3,45.71a3.56,3.56,0,0,0-.47,1.42.85.85,0,0,0,.63.94l-.32.48-5-2.52.31-.47a1,1,0,0,0,1.26-.32,2.65,2.65,0,0,0,.94-1.41l3.31-6.61c.47-1.1.47-1.73,0-2a.6.6,0,0,0-.47-.15l.15-.48,4.88.79Zm6.77,12.11c-.95,2.05-2.21,3.15-3.62,3.31a3.07,3.07,0,0,1-1.73-.16,2.49,2.49,0,0,1-1.1-1.41,3.31,3.31,0,0,1,.31-2l-.31-.16-2.36,3a10.35,10.35,0,0,0,2.83,2,9.87,9.87,0,0,0,2.36.78,6.46,6.46,0,0,0,2.52-.47,9.74,9.74,0,0,0,4.09-4.25,9.89,9.89,0,0,0,1.1-3.46c.15-2.36-.63-4.25-2.83-5.19A3.66,3.66,0,0,0,260,39a5.24,5.24,0,0,0-3.94,3.15,4.16,4.16,0,0,0-.31,1.1,4.42,4.42,0,0,0,0,2.83,2.86,2.86,0,0,0,1.57,1.73,4.41,4.41,0,0,0,3.94-.32Zm1.1-2.83a3.36,3.36,0,0,1-1.26,1.58,1.42,1.42,0,0,1-1.73.15,1.73,1.73,0,0,1-.79-1.57,3.85,3.85,0,0,1,.63-2.05A7.53,7.53,0,0,1,260.47,41a2,2,0,0,1,1.73-.47,1.86,1.86,0,0,1,.79,1.73A8.73,8.73,0,0,1,262.36,44.61Z"/><path class="cls-10" d="M228.53,25.42l-3.46,11.17c-.16.63-.31,1.1-.16,1.41,0,.32.32.63.79.79l-.16.47-5.35-1.57.16-.47a1.06,1.06,0,0,0,1.26-.47,5.37,5.37,0,0,0,.63-1.58l2.2-7.08c.32-1.1.16-1.88-.31-2-.16,0-.32-.16-.48-.16v-.63l4.88.16Zm5.67,6.76a9.41,9.41,0,0,1,2.36.32,5.58,5.58,0,0,1,2.83,2,5.18,5.18,0,0,1,.16,4.09A4.49,4.49,0,0,1,237,41.47a6.12,6.12,0,0,1-4.09.47,8,8,0,0,1-3.78-2.83l2.36-2.84.16.32c0,.16-.16.31-.16.47a2.27,2.27,0,0,0,.16,2,2.53,2.53,0,0,0,1.41,1.1,2.11,2.11,0,0,0,.95.15,2.62,2.62,0,0,0,1.89-.78,3.48,3.48,0,0,0,.63-.95,2,2,0,0,0-.79-2.36,3.14,3.14,0,0,0-1.42-.78,4.76,4.76,0,0,0-3.3.16,24.74,24.74,0,0,0,3.15-6.46,5.46,5.46,0,0,0,.47-2,1.63,1.63,0,0,0,.78.63l5,1.57a1,1,0,0,0,.94-.16l-1.88,3.47-.32-.16c.16-.32-.16-.63-.79-.79l-3.61-1.1A8.55,8.55,0,0,1,234.2,32.18Z"/></g><path class="cls-11" d="M259.19,71.42C320.72,113.5,336.48,197.67,294.4,259c-42.08,61.53-126.25,77.29-187.78,35.21S29.33,168,71.41,106.63A135.18,135.18,0,0,1,259.19,71.42Z"/><circle class="cls-12" cx="182.9" cy="182.83" r="144"/><path d="M110.58,311.32c-2.07-.06-4.12-.14-6.17-.23-7.68-.35-13.94-3.87-17.61-9.92-14.43-23.62-26.41-56.5-33.72-92.58-1.2-6.33.52-10.52,2.39-13.08-11.59-9.26-18.35-22.9-17.13-37.13.38-4.26.86-8.54,1.43-12.77,1-7.23,5.82-12.38,12.42-13.6a31,31,0,0,1-4.63-26.12q1.86-7.42,4.09-15.33c6.05-20,22.85-33.77,43.9-36.18l.55-.05a45.62,45.62,0,0,1,5-.27c12.18,0,19.26,5.09,23,9.36.37.42.73.84,1.07,1.28,2.47-7.84,8.49-13,16.52-13.74,7.31-.73,14.66-1.39,22-2,1.69-.11,3.14-.16,4.55-.16,10.71,0,19.4,2.86,25.55,8.12a15.64,15.64,0,0,1,3-5.06c2.18-2.42,6.2-5.35,12.93-5.57l6.27-.18c5.9,0,10.87,2.16,14.14,5.87l.23-.3c2.12-2.68,6.2-5.87,13.58-5.87,2.5,0,4.71.06,6.91.1,8.92.21,14.2,4.54,17.06,8.14l1.71,2.08a13.45,13.45,0,0,1,1.06-1.9c1.55-2.31,5.24-6.2,12.59-6.2a25.13,25.13,0,0,1,2.75.16l4.25.55c8.05,1.09,14.44,5.73,17.5,12.74,11.22,25.87,18.4,61.4,19.73,97.5a15,15,0,0,1-4,11.39,13.78,13.78,0,0,1-10,4.17,17.43,17.43,0,0,1-4.9-.73V174c-1.12,32.64-6.45,67.51-16.79,109.72-2.46,9.89-9.25,16.31-18.2,17.24l-5.5.58c-.7.07-1.39.11-2.07.11a15.87,15.87,0,0,1-15.69-12.41c-2.11,9.16-8.52,15.27-17.18,16.17l-4,.42a19.91,19.91,0,0,1-2.08.11,15.86,15.86,0,0,1-12-5.13c-.16-.18-.32-.36-.47-.55a18,18,0,0,1-14.17,8.22l-5.58.43c-.57,0-1.06.05-1.54.05a16.63,16.63,0,0,1-12.2-4.85,17.43,17.43,0,0,1-4.8-12.93q.21-12.42.37-25.1c-1.41,10.37-2.62,20.09-3.57,29.25s-7.84,15.4-17.42,15.72l-6.12.18c-8.49,0-15.22-4.37-18-11.69-1.23-3-2.43-6-3.6-8.92,0,1.71,0,3.36.06,5a14.54,14.54,0,0,1-4,10.76c-2.14,2.27-6.1,5-12.79,5Zm-15-104.55a21.61,21.61,0,0,1,.67,2.83q.54,3.27,1.11,6.48.52-2.94,1.08-6a20.09,20.09,0,0,1,1.2-4.17A37.4,37.4,0,0,1,95.53,206.77Zm45.14-6.16a17.61,17.61,0,0,1,2.18,5.53c.33,1.43.67,2.86,1,4.28.4-3.44,1.29-11,1.31-11.14C143.67,199.74,142.17,200.18,140.67,200.61Zm-23-6.82.7-.12c-.08-.16-.17-.33-.25-.51Zm43.95-46.31c-.3,10.7-.5,21.29-.59,31.59,0,.62,0,1.23-.09,1.84l4.14-1.61a21,21,0,0,1,7.85-1.65,15.12,15.12,0,0,1,6.76,1.54,23.25,23.25,0,0,1,12.41-10.77q3.39-1.33,6.76-2.63l.18-.07a17.3,17.3,0,0,1-2.62-9.29q-.1-15.19-.48-29.75c-5.78,7.26-15.18,14.29-30.27,19.47C164.29,146.6,162.94,147.05,161.6,147.48Zm101.11,14.63a20.34,20.34,0,0,1,1,2.43q1.14,3.06,2.23,6.17c0-.6,0-1.2.05-1.81a19,19,0,0,1,1.88-7.9A22.56,22.56,0,0,1,262.71,162.11Zm16.79-17.27a18.27,18.27,0,0,1-2,8,18.11,18.11,0,0,1,4.79-.78Q280.94,148.41,279.5,144.84Zm-165.21-19.2a36.48,36.48,0,0,1,4.4,4.39q.21-3.14.43-6.27A20,20,0,0,1,114.29,125.64ZM89,93"/><path d="M110.19,114.59c-1.93.22-3.87.43-5.81.6-4.45.38-6.49-2.18-5.75-7.16q.83-5.58,1.73-11.24c1.38-8.63-2-11.42-7.52-11s-10.21,3.65-12,11.81Q80,102,79.1,106.42c-1.27,6.52.25,9.55,5.36,13.28q6.39,4.48,13,8.52c10.86,6.57,17.47,11.21,16.6,24.91-.38,6.1-.69,12.11-.93,18-.68,18.5-12.85,27.34-32.33,23.7l-.36-.08c-19.33-4.18-31.89-19.51-30.54-35.37.37-4.09.83-8.15,1.37-12.22.53-3.86,3.36-4.67,8-2.9q3,1.16,6.06,2.08c4.64,1.39,6.85,4.22,6.41,8.56q-.56,5.46-1,10.85c-.53,6.95,3.92,11.57,10.29,12.76s11.06-1.83,11.47-9.21q.28-4.74.64-9.56c.47-6.36-1.21-9.52-7.1-13.32-4.52-3.08-9-6.4-13.36-9.9-11-9.07-16.77-16.4-13.9-27.76q1.85-7.32,4-15c5.2-17.15,19.5-26.11,34-27.77l.3,0c14.66-1.59,24.9,5.2,22.43,25.58q-.91,7.28-1.73,14.46C117.32,111,114.65,114.05,110.19,114.59Zm82.38-33.83q.26,10,.46,20.36c.39,16.2-12.12,27.5-31.15,34q-5.82,1.93-11.64,3.73c-.46,13.68-.75,27.09-.86,40.1,0,4.38-2.61,7.62-7.4,9.11q-3.3,1-6.62,1.94c-4.78,1.3-7.34-.47-7.28-4.85.48-34.85,3-74.42,7.67-114.32.59-5,3.1-7.94,7.11-8.33q10.9-1.08,21.81-2C180.93,59.54,192,65.13,192.57,80.76Zm-19.26,6.51c.15-8.29-4-10-10.16-9l-9.9,1.58c-.94,13.6-1.7,27.27-2.3,40.78q5.34-1.47,10.68-3c6.67-2,11.26-5.72,11.38-14.09Q173.15,95.36,173.31,87.27ZM222,158.11c-2.21.7-4.41,1.42-6.62,2.18-4.79,1.65-7.37.31-7.39-3.93-.23-33.69-1.43-64.47-3.61-92.73-.26-3.58,1.74-5.57,5.76-5.69,1.85-.07,3.71-.13,5.57-.18,4-.1,6.47,1.55,7,4.74,4,25.34,6.2,53.86,6.61,87C229.39,153.66,226.82,156.62,222,158.11Zm38.6-7.5c-1.59.07-3.19.18-4.78.32-4.77.44-7.35-1.37-7.43-5.49-.58-32.66-3.68-60.07-9.29-83.5-.7-3,1.05-4.53,5.06-4.48q3.24,0,6.49.1a10.21,10.21,0,0,1,8.2,3.74,262.81,262.81,0,0,1,34.87,54.07c-2.66-19.18-7.05-36.92-13.21-51.79-1.21-2.94.23-4.27,4.23-3.81,1.34.16,2.67.33,4,.51,4,.54,7,2.58,8.42,5.88,11.34,26.17,17.58,61.27,18.76,93.27.14,4.07-2.4,4.45-7.15,1.88-2.19-1.17-4.39-2.24-6.58-3.21-4.21-1.83-7-4.44-8.34-8.29A317.85,317.85,0,0,0,262,85.9c3.43,17.22,5.39,36.76,5.89,58.34C268,148.31,265.41,150.4,260.64,150.61Zm-84.69,44c-5.87,36.64-11.32,71-14.29,99.55-.38,3.48-2.54,5.18-6.24,5.3l-5.39.17c-3.69.09-6.39-1.32-7.5-4.21-7.24-17.89-14.52-36-20.92-56.7-3.56,22.12-5.56,41-5.11,57.24.15,2.63-1.88,3.87-5.57,3.76q-3-.09-6-.23c-3.67-.17-6.51-1.57-8.2-4.34C83,272.64,71.57,241.28,64.47,206.28c-.89-4.7,1.47-5.87,6.4-4.15,2,.68,4,1.29,6,1.82,4.58,1.18,7.16,3.76,7.82,7.61,4,24.55,10,46.7,17.34,65.38.28-18.57,3.18-40,7.75-64.73.66-3.84,3.58-6,8-6.67q2.76-.42,5.51-1c4.41-.86,7.37.34,8.15,4,5.44,23.47,11.86,44.32,18.29,64.6,1.25-21.44,3.76-45.74,6.88-72,.52-4.1,3.09-7.34,7.7-9.11,1.65-.63,3.31-1.28,5-1.93C174.28,188.15,176.68,189.66,176,194.59Zm23.71,102.3-5.55.43c-4,.27-6.11-1.81-6.05-6,.56-33.16.87-68.08.94-102.52,0-4.33,2.58-7.71,7.37-9.61,2.21-.87,4.42-1.74,6.62-2.58,4.79-1.83,7.36-.42,7.32,4-.27,34.78-1.61,72.31-4,108.75C206,294,203.66,296.59,199.66,296.89Zm32.35-3-4,.42c-4,.4-5.86-2-5.36-6.89,4-38.94,6.3-78.11,6.77-113,.05-4.39,2.64-7.49,7.42-8.63q3.85-.92,7.71-1.64c4.23-.77,7,.71,8.19,4.23a389.36,389.36,0,0,1,18.75,70,608.71,608.71,0,0,0,6.15-69.13c.11-4.25,2.7-6.29,7.47-5.33,1.58.32,3.17.69,4.76,1.11,4.75,1.29,7.29,4.51,7.16,8.62-1.13,32.85-6.61,67.1-16.46,107.35-1.26,5-4.13,8-8.11,8.43l-5.53.58c-3.53.39-5.36-1.58-5.6-5.88A383.84,383.84,0,0,0,247.39,206c-1.56,25.12-4.25,52.06-8.08,79.29C238.58,290.44,236,293.44,232,293.86Z"/><path class="cls-13" d="M110.19,114.59c-1.93.22-3.87.43-5.81.6-4.45.38-6.49-2.18-5.75-7.16q.83-5.58,1.73-11.24c1.38-8.63-2-11.42-7.52-11s-10.21,3.65-12,11.81Q80,102,79.1,106.42c-1.27,6.52.25,9.55,5.36,13.28q6.39,4.48,13,8.52c10.86,6.57,17.47,11.21,16.6,24.91-.38,6.1-.69,12.11-.93,18-.68,18.5-12.85,27.34-32.33,23.7l-.36-.08c-19.33-4.18-31.89-19.51-30.54-35.37.37-4.09.83-8.15,1.37-12.22.53-3.86,3.36-4.67,8-2.9q3,1.16,6.06,2.08c4.64,1.39,6.85,4.22,6.41,8.56q-.56,5.46-1,10.85c-.53,6.95,3.92,11.57,10.29,12.76s11.06-1.83,11.47-9.21q.28-4.74.64-9.56c.47-6.36-1.21-9.52-7.1-13.32-4.52-3.08-9-6.4-13.36-9.9-11-9.07-16.77-16.4-13.9-27.76q1.85-7.32,4-15c5.2-17.15,19.5-26.11,34-27.77l.3,0c14.66-1.59,24.9,5.2,22.43,25.58q-.91,7.28-1.73,14.46C117.32,111,114.65,114.05,110.19,114.59Z"/><path class="cls-14" d="M96.65,68.28c9.25-1,23.86.87,21,23.48q-1,7.27-1.78,14.47c-.44,3.78-2.1,5.68-5.42,6.08q-2.89.34-5.79.61c-3.32.29-4.58-1.28-4-5s1.09-7.49,1.69-11.27c1.38-9-1.83-13.74-9-13.16s-12.52,5.72-14.37,14.1Q78,102,77.11,106.32c-1.57,7.82.91,11.41,6.06,15.21q6.42,4.56,13.07,8.64c11.37,6.9,16.5,11.28,15.71,23.24q-.58,9.15-1,18c-.62,15.73-9.69,25.08-30.16,21.53l-.36-.08C60.12,188.1,50.9,174,52.07,160.58c.36-4.13.81-8.24,1.34-12.37.39-2.94,2.14-3.49,5.62-2.11,2,.79,4,1.5,6.07,2.15,3.48,1.07,4.86,2.86,4.53,6.08q-.57,5.41-1,10.76c-.58,7.38,4.15,13.76,12.36,15.36s13.26-3.14,13.7-11.09q.27-4.74.62-9.59c.53-7.21-1.57-11-8-15.11-4.5-3-8.94-6.28-13.3-9.72-11.24-9.15-15.69-15.48-13.19-25.76q1.81-7.44,4-15.28C70.5,74.55,87.26,69.22,96.34,68.32l.31,0m.52-2.37-.3,0C82.33,67.6,68,76.56,62.84,93.71q-2.16,7.73-4,15c-2.87,11.36,2.92,18.69,13.9,27.76,4.38,3.5,8.84,6.82,13.36,9.9,5.89,3.79,7.57,7,7.1,13.32q-.36,4.82-.64,9.56c-.41,7.38-5.07,10.38-11.47,9.21s-10.82-5.81-10.29-12.76q.4-5.38,1-10.85c.44-4.34-1.77-7.17-6.41-8.56q-3-.93-6.06-2.08c-4.63-1.77-7.46-1-8,2.9q-.81,6.1-1.37,12.22c-1.35,15.86,11.21,31.19,30.54,35.37l.36.08c19.48,3.64,31.65-5.2,32.33-23.7.24-5.88.55-11.89.93-18,.87-13.7-5.74-18.34-16.6-24.91q-6.63-4-13-8.52c-5.11-3.73-6.63-6.76-5.36-13.28Q80,102,80.88,97.59c1.75-8.17,6.51-11.42,12-11.81s8.9,2.38,7.52,11q-.9,5.65-1.73,11.24c-.74,5,1.3,7.54,5.75,7.16,1.94-.17,3.88-.38,5.81-.6,4.46-.54,7.13-3.61,7.68-8.64q.81-7.19,1.73-14.46c2.47-20.38-7.77-27.17-22.43-25.58Z"/><path class="cls-15" d="M192.57,80.76q.26,10,.46,20.36c.39,16.2-12.12,27.5-31.15,34q-5.82,1.93-11.64,3.73c-.46,13.68-.75,27.09-.86,40.1,0,4.38-2.61,7.62-7.4,9.11q-3.3,1-6.62,1.94c-4.78,1.3-7.34-.47-7.28-4.85.48-34.85,3-74.42,7.67-114.32.59-5,3.1-7.94,7.11-8.33q10.9-1.08,21.81-2C180.93,59.54,192,65.13,192.57,80.76Zm-19.26,6.51c.15-8.29-4-10-10.16-9l-9.9,1.58c-.94,13.6-1.7,27.27-2.3,40.78q5.34-1.47,10.68-3c6.67-2,11.26-5.72,11.38-14.09Q173.15,95.36,173.31,87.27Z"/><path class="cls-16" d="M164.57,62.6c17.06-1.27,25.62,4.8,26,18.51q.21,10.14.37,20.55c.28,14.14-9.27,24.72-29.06,31.44q-5.8,1.91-11.61,3.67a3.23,3.23,0,0,0-2.19,2.75c-.49,13.73-.79,27.18-.91,40.19,0,3.28-1.63,5.29-5.21,6.4q-3.31,1-6.62,1.94c-3.58,1-5.17-.11-5.13-3.39.46-34.86,2.91-74.35,7.36-114,.43-3.74,2-5.55,5-5.87q11-1.17,21.95-2.16m-13.71,60.15q5.35-1.48,10.71-3.08c9-2.7,13.38-8.23,13.47-16.69q.12-8.08.24-16.11c.11-8.37-3.82-11.84-12-10.66l-9.86,1.49a2.69,2.69,0,0,0-2.06,2.45c-1,13.7-1.81,27.46-2.45,41a1.46,1.46,0,0,0,2,1.56m13.81-62.18q-10.9.87-21.81,2c-4,.39-6.52,3.31-7.11,8.33-4.64,39.9-7.19,79.47-7.67,114.32-.06,4.38,2.5,6.15,7.28,4.85q3.31-.92,6.62-1.94c4.79-1.49,7.37-4.73,7.4-9.11.11-13,.4-26.42.86-40.1q5.82-1.78,11.64-3.73c19-6.53,31.54-17.83,31.15-34q-.21-10.31-.46-20.36c-.6-15.64-11.64-21.22-27.9-20.19ZM151,120.63c.6-13.51,1.36-27.18,2.3-40.78l9.9-1.58c6.15-1,10.31.71,10.16,9q-.17,8.08-.3,16.25c-.12,8.37-4.71,12.13-11.38,14.09q-5.34,1.55-10.68,3Z"/><path class="cls-17" d="M222,158.11c-2.21.7-4.41,1.42-6.62,2.18-4.79,1.65-7.37.31-7.39-3.93-.23-33.69-1.43-64.47-3.61-92.73-.26-3.58,1.74-5.57,5.76-5.69,1.85-.07,3.71-.13,5.57-.18,4-.1,6.47,1.55,7,4.74,4,25.34,6.2,53.86,6.61,87C229.39,153.66,226.82,156.62,222,158.11Z"/><path class="cls-18" d="M216,59.25c3-.1,4.55.93,4.91,3.34,3.81,25.61,5.91,54.32,6.31,87.51,0,3.12-1.56,5-5.14,6.09-2.21.69-4.41,1.41-6.62,2.16-3.59,1.24-5.19.4-5.21-2.77-.25-33.64-1.55-64.15-3.91-92.09-.22-2.64,1-3.88,4.06-4l5.6-.23m-.2-1.49c-1.86.05-3.72.11-5.57.18-4,.12-6,2.11-5.76,5.69,2.18,28.26,3.38,59,3.61,92.73,0,4.25,2.6,5.58,7.39,3.93,2.21-.76,4.41-1.48,6.62-2.18,4.78-1.49,7.35-4.45,7.3-8.62-.41-33.13-2.62-61.65-6.61-87-.51-3.19-3-4.84-7-4.74Z"/><path class="cls-19" d="M260.64,150.61c-1.59.07-3.19.18-4.78.32-4.77.44-7.35-1.37-7.43-5.49-.58-32.66-3.68-60.07-9.29-83.5-.7-3,1.05-4.53,5.06-4.48q3.24,0,6.49.1a10.21,10.21,0,0,1,8.2,3.74,262.81,262.81,0,0,1,34.87,54.07c-2.66-19.18-7.05-36.92-13.21-51.79-1.21-2.94.23-4.27,4.23-3.81,1.34.16,2.67.33,4,.51,4,.54,7,2.58,8.42,5.88,11.34,26.17,17.58,61.27,18.76,93.27.14,4.07-2.4,4.45-7.15,1.88-2.19-1.17-4.39-2.24-6.58-3.21-4.21-1.83-7-4.44-8.34-8.29A317.85,317.85,0,0,0,262,85.9c3.43,17.22,5.39,36.76,5.89,58.34C268,148.31,265.41,150.4,260.64,150.61Z"/><path class="cls-20" d="M289.43,61.66c3,.43,4.86,1.71,5.92,4.13,11.16,25.78,17.3,60.28,18.46,92.27.1,3.05-1.46,3.35-5,1.42-2.19-1.18-4.39-2.25-6.58-3.22-3.27-1.43-5.19-3.28-6.28-6.34-9.3-25.08-20.47-46.88-32.13-64.45a2.64,2.64,0,0,0-2.11-1h-.32c-.95.1-1.54.71-1.41,1.43,3.34,17.21,5.25,36.73,5.75,58.33.06,3.05-1.52,4.38-5.09,4.53-1.59.07-3.18.17-4.78.31-3.57.33-5.18-.82-5.23-3.9-.61-32.61-3.81-60-9.61-83.23-.54-2.2.55-3.17,3.57-3.16,2.18,0,4.36,0,6.53.08a7.34,7.34,0,0,1,6.17,2.83,269.39,269.39,0,0,1,34.57,53.65A3.84,3.84,0,0,0,294,117.1a2.25,2.25,0,0,0,.35.09c1,.2,1.65-.27,1.53-1.12-2.71-19.31-7.19-37.27-13.46-52.28-.93-2.22,0-3,3-2.68,1.35.17,2.69.35,4,.55m-.64-1.38c-1.34-.18-2.67-.35-4-.51-4-.46-5.44.87-4.23,3.81,6.15,14.87,10.56,32.61,13.21,51.79A262.81,262.81,0,0,0,258.89,61.3a10.21,10.21,0,0,0-8.2-3.74q-3.25-.08-6.49-.1c-4-.05-5.76,1.52-5.06,4.48,5.61,23.43,8.71,50.83,9.29,83.5.08,4.12,2.66,5.93,7.43,5.49,1.59-.14,3.19-.25,4.78-.32,4.77-.21,7.33-2.3,7.23-6.37-.5-21.58-2.46-41.12-5.89-58.34a317.85,317.85,0,0,1,31.92,63.91c1.37,3.85,4.13,6.46,8.34,8.29,2.19,1,4.39,2,6.58,3.21,4.75,2.57,7.29,2.19,7.15-1.88-1.18-32-7.42-67.1-18.76-93.27-1.44-3.3-4.43-5.34-8.42-5.88Z"/><path class="cls-21" d="M176,194.59c-5.87,36.64-11.32,71-14.29,99.55-.38,3.48-2.54,5.18-6.24,5.3l-5.39.17c-3.69.09-6.39-1.32-7.5-4.21-7.24-17.89-14.52-36-20.92-56.7-3.56,22.12-5.56,41-5.11,57.24.15,2.63-1.88,3.87-5.57,3.76q-3-.09-6-.23c-3.67-.17-6.51-1.57-8.2-4.34C83,272.64,71.57,241.28,64.47,206.28c-.89-4.7,1.47-5.87,6.4-4.15,2,.68,4,1.29,6,1.82,4.58,1.18,7.16,3.76,7.82,7.61,4,24.55,10,46.7,17.34,65.38.28-18.57,3.18-40,7.75-64.73.66-3.84,3.58-6,8-6.67q2.76-.42,5.51-1c4.41-.86,7.37.34,8.15,4,5.44,23.47,11.86,44.32,18.29,64.6,1.25-21.44,3.76-45.74,6.88-72,.52-4.1,3.09-7.34,7.7-9.11,1.65-.63,3.31-1.28,5-1.93C174.28,188.15,176.68,189.66,176,194.59Z"/><path class="cls-22" d="M169.32,192.07c1.79-.71,3.06-.84,3.77-.39.92.59.89,2.22.71,3.46-5.85,36.58-11.2,70.69-14,98.88-.27,2.57-1.66,3.75-4.55,3.88l-5.43.22c-2.91.1-4.71-.9-5.52-3.07-7.11-18.08-14.28-36.3-20.63-57A1.88,1.88,0,0,0,121.5,237a2.3,2.3,0,0,0-2,1.69c-3.53,22-5.45,40.85-4.88,57,.12,1.92-1.21,2.81-4.12,2.72-2-.05-4-.13-6-.22-2.89-.13-4.73-1.1-6-3.16C85,272.61,73.66,241.71,66.6,206.91c-.23-1.2-.31-2.73.59-3.27.69-.41,1.94-.28,3.72.34,2,.68,4,1.29,6,1.82,3.35.87,5.13,2.56,5.64,5.57,4,24.62,10.08,46.92,17.56,65.66a2.6,2.6,0,0,0,2.21,1.34h.06c1,0,1.66-.44,1.67-1.12.36-18.58,3.32-40.08,7.89-64.93.48-2.82,2.41-4.37,5.86-4.89,1.84-.27,3.68-.59,5.51-.94,3.46-.68,5.42.23,6,2.93,5.46,23.47,12,44.26,18.49,64.36a1.8,1.8,0,0,0,2.07,1l.06,0a2.06,2.06,0,0,0,1.79-1.74c1.35-21.63,3.92-46.09,7.05-72.41.41-3.24,2.18-5.33,5.54-6.62,1.66-.63,3.31-1.28,5-1.93m0-1.95c-1.65.65-3.31,1.3-5,1.93-4.6,1.77-7.18,5-7.7,9.11-3.12,26.28-5.63,50.58-6.88,72-6.43-20.28-12.85-41.13-18.29-64.6-.78-3.65-3.74-4.86-8.15-4q-2.74.54-5.51,1c-4.41.67-7.33,2.83-8,6.67-4.57,24.74-7.47,46.16-7.75,64.73-7.36-18.68-13.35-40.83-17.34-65.38-.66-3.85-3.24-6.43-7.82-7.61-2-.53-4-1.14-6-1.82-4.93-1.72-7.29-.55-6.4,4.15,7.1,35,18.53,66.36,32.26,88.85,1.69,2.77,4.53,4.17,8.2,4.34q3,.13,6,.23c3.69.11,5.72-1.13,5.57-3.76-.45-16.24,1.55-35.12,5.11-57.24,6.4,20.68,13.67,38.81,20.92,56.7,1.11,2.89,3.81,4.3,7.5,4.21l5.39-.17c3.7-.12,5.86-1.82,6.24-5.3,3-28.5,8.42-62.91,14.29-99.55.73-4.93-1.67-6.44-6.64-4.47Z"/><path class="cls-23" d="M199.66,296.89l-5.55.43c-4,.27-6.11-1.81-6.05-6,.56-33.16.87-68.08.94-102.52,0-4.33,2.58-7.71,7.37-9.61,2.21-.87,4.42-1.74,6.62-2.58,4.79-1.83,7.36-.42,7.32,4-.27,34.78-1.61,72.31-4,108.75C206,294,203.66,296.59,199.66,296.89Z"/><path class="cls-24" d="M203,178.62c3.58-1.36,5.17-.49,5.15,2.79-.25,34.75-1.48,72-3.7,108.17-.21,3.4-1.66,5-4.67,5.3l-5.59.49c-3,.24-4.33-1.05-4.26-4.2.75-33.51,1.17-68.72,1.25-103.2,0-3.25,1.61-5.34,5.19-6.76q3.31-1.32,6.63-2.59m0-2c-2.2.84-4.41,1.71-6.62,2.58-4.79,1.9-7.37,5.28-7.37,9.61-.07,34.44-.38,69.36-.94,102.52-.06,4.15,2.05,6.23,6.05,6l5.55-.43c4-.3,6.33-2.94,6.64-7.53,2.4-36.44,3.74-74,4-108.75,0-4.38-2.53-5.79-7.32-4Z"/><path class="cls-25" d="M232,293.86l-4,.42c-4,.4-5.86-2-5.36-6.89,4-38.94,6.3-78.11,6.77-113,.05-4.39,2.64-7.49,7.42-8.63q3.85-.92,7.71-1.64c4.23-.77,7,.71,8.19,4.23a389.36,389.36,0,0,1,18.75,70,608.71,608.71,0,0,0,6.15-69.13c.11-4.25,2.7-6.29,7.47-5.33,1.58.32,3.17.69,4.76,1.11,4.75,1.29,7.29,4.51,7.16,8.62-1.13,32.85-6.61,67.1-16.46,107.35-1.26,5-4.13,8-8.11,8.43l-5.53.58c-3.53.39-5.36-1.58-5.6-5.88A383.84,383.84,0,0,0,247.39,206c-1.56,25.12-4.25,52.06-8.08,79.29C238.58,290.44,236,293.44,232,293.86Z"/><path class="cls-26" d="M289.83,166.89c3.57,1,5.14,2.91,5,6-1.1,33-6.47,67.75-16.15,108.21-.92,3.81-2.69,5.65-5.7,5.94l-5.56.57c-2.76.29-4-1.07-4.22-4.45A382.48,382.48,0,0,0,249.45,205a1.63,1.63,0,0,0-1.93-1.13,2.14,2.14,0,0,0-.34.09,2.85,2.85,0,0,0-1.91,2.43c-1.51,25.12-4.11,52-7.82,79.15-.53,3.82-2.12,5.68-5.13,6l-4,.45c-3,.33-4.17-1.17-3.78-4.85,4.24-39.19,6.6-78.48,7.08-113.36,0-3.29,1.65-5.2,5.23-6.06q3.85-.92,7.71-1.64c3.29-.6,5.19.4,6.15,3.17a389.71,389.71,0,0,1,18.79,69.87,1.65,1.65,0,0,0,1.7,1.44l.33,0a2.74,2.74,0,0,0,2-2.24,588.68,588.68,0,0,0,6.28-68.81c.09-3.17,1.7-4.41,5.27-3.7,1.59.32,3.18.69,4.76,1.1m0-1.89c-1.59-.41-3.18-.79-4.76-1.11-4.77-1-7.36,1.08-7.47,5.33a608.71,608.71,0,0,1-6.15,69.13,389.36,389.36,0,0,0-18.75-70c-1.22-3.52-4-5-8.19-4.23q-3.86.72-7.71,1.64c-4.78,1.14-7.37,4.24-7.42,8.63-.47,34.88-2.72,74-6.77,113-.5,4.88,1.36,7.29,5.36,6.89l4-.42c4-.42,6.57-3.42,7.3-8.54,3.83-27.23,6.52-54.17,8.08-79.29a383.84,383.84,0,0,1,13.94,78.07c.24,4.3,2.07,6.27,5.6,5.88l5.53-.58c4-.41,6.85-3.39,8.11-8.43,9.85-40.25,15.33-74.5,16.46-107.35.13-4.11-2.41-7.33-7.16-8.62Z"/><ellipse class="cls-27" cx="182.9" cy="371.96" rx="181" ry="26.17"/><path class="cls-28" d="M187.76,346.43a141.83,141.83,0,0,0-33.25-6.21,179.11,179.11,0,0,0-34.49.92c-11.5,1.45-23.08,4-33.71,8.72a52.76,52.76,0,0,0-14.23,8.76,24.27,24.27,0,0,0-5.23,6.45,14.44,14.44,0,0,0-1.5,4.05,22.3,22.3,0,0,0,0,4.4c.13,5.5,4.55,10.11,8.67,13.28a56.3,56.3,0,0,0,14.4,7.72,125.51,125.51,0,0,0,33.66,7.37,182.49,182.49,0,0,0,34-.16,133.87,133.87,0,0,0,33.55-7.43,64,64,0,0,0,15.14-7.8c4.37-3.14,8.65-7.36,10-12.75,2.92-11.87-9.83-20.08-19-24.22C193.16,348.35,190.47,347.38,187.76,346.43Z"/><path class="cls-29" d="M182.43,331.88A116.56,116.56,0,0,0,155,326.75a148,148,0,0,0-28.47.76,101.16,101.16,0,0,0-27.7,7.13c-7.59,3.29-18.38,9.54-17.68,19.2.67,9.32,11.64,14.85,19.24,17.76A103,103,0,0,0,128,377.67a151.26,151.26,0,0,0,28.23-.12,109.46,109.46,0,0,0,27.81-6.17,53.35,53.35,0,0,0,12.46-6.44c3.58-2.59,7.11-6.07,8.19-10.5,2.38-9.82-8.09-16.57-15.68-20C186.89,333.47,184.67,332.66,182.43,331.88Z"/><path class="cls-30" d="M171.42,337.45a84.69,84.69,0,0,0-19.77-3.72,105.72,105.72,0,0,0-20.2.51,72.09,72.09,0,0,0-19.56,4.9c-5.42,2.32-13.2,6.5-13.26,13.32-.06,7,8.05,11.15,13.59,13.32a74,74,0,0,0,19.55,4.4,105.17,105.17,0,0,0,20.69,0,78.64,78.64,0,0,0,19.77-4.35c5.65-2.1,13.05-5.62,14.94-11.89,2.14-7.05-5.55-12.11-11-14.59C174.64,338.61,173,338,171.42,337.45Z"/><path class="cls-31" d="M171.87,341.44l3.87-1.39a51.72,51.72,0,0,0-7.2-2.73c-1-.3-2-.57-3.07-.83-.63-.15-.88-.28-1.44,0a18.07,18.07,0,0,0-2.16,1.58A47.67,47.67,0,0,1,171.87,341.44ZM156,337l1.74-2c-2.86-.38-5.73-.67-8.61-.81-1.3-.06-2.6-.09-3.89-.11-.39,0-1.53-.21-1.84,0s-.14,1.61-.14,2.1A92,92,0,0,1,156,337Zm-19.22-.52c-.22-.53-.51-1.88-1-2.07a6.16,6.16,0,0,0-2,.19c-1.36.14-2.71.31-4.06.51-2.57.39-5.13.88-7.65,1.49.66.48,1.3,1,2,1.44s1,.25,1.85.06c1.16-.26,2.31-.49,3.47-.69C131.8,337,134.26,336.67,136.74,336.46ZM119.16,340c-1-.48-2.47-1.62-3.53-1.51a13,13,0,0,0-3.23,1.28,34.55,34.55,0,0,0-6.16,3.4l1.82.42a9.87,9.87,0,0,0,2.43.57c.72-.05,1.68-1,2.36-1.34A40.49,40.49,0,0,1,119.16,340Zm-11.37,6.69c-1.4-.2-2.82-.52-4.23-.61-.63,0-.56-.11-1,.38a9.52,9.52,0,0,0-1,1.36,8.87,8.87,0,0,0-1.45,4.31l3.41,0c.34,0,1.36.17,1.64,0s.19-.69.25-1A9.41,9.41,0,0,1,107.79,346.67Zm-2.07,8.14-5.14.42a12,12,0,0,0,2.86,4.17c.53.51,1.44,1.59,2.15,1.67a8.21,8.21,0,0,0,2.39-.59l2-.5A12.08,12.08,0,0,1,105.72,354.81Zm8,7.43-4,1.45a44.2,44.2,0,0,0,7.2,2.85c1.1.34,2.2.64,3.31.92.7.18.81.24,1.4-.13s1.43-1,2.14-1.56A43.49,43.49,0,0,1,113.67,362.24Zm16,4.68L127.89,369c2.92.41,5.85.71,8.79.86q2,.09,4,.12c.41,0,1.69.23,2,0s.14-1.67.14-2.17A89.6,89.6,0,0,1,129.7,366.92Zm19.76.59c.22.54.53,1.94,1,2.13a6,6,0,0,0,2.08-.2c1.4-.15,2.79-.32,4.17-.53,2.63-.4,5.24-.94,7.82-1.58-.67-.48-1.34-1-2-1.46s-.79-.31-1.54-.14c-1.22.29-2.46.55-3.7.77C154.69,367,152.08,367.28,149.46,367.51Zm18-3.69c1,.49,2.52,1.66,3.58,1.53a12.4,12.4,0,0,0,3.16-1.3,31.69,31.69,0,0,0,6.16-3.55l-1.81-.43a9.51,9.51,0,0,0-2.43-.56c-.71.06-1.66,1-2.32,1.39A35.32,35.32,0,0,1,167.44,363.82Zm11.26-6.91,2.81.41c.87.12,1.67.5,2.29-.09a8.4,8.4,0,0,0,1.82-3.47,7.73,7.73,0,0,0,.27-1.42c.07-.67.18-.8-.39-.93a15.86,15.86,0,0,0-3.51,0c-1.21,0-1-.09-1.18,1A8.8,8.8,0,0,1,178.7,356.91Zm1.53-8.2,5-.41a12.71,12.71,0,0,0-3.08-4.05c-.52-.49-1.52-1.59-2.22-1.69a7.77,7.77,0,0,0-2.23.56l-2,.51A13,13,0,0,1,180.23,348.71Z"/><path class="cls-32" d="M166.19,340.09a76.44,76.44,0,0,0-32.8-2.6,58.59,58.59,0,0,0-16.07,4.13c-4.35,1.9-10.63,5.42-10.41,11s6.66,8.83,11.14,10.57a60,60,0,0,0,15.88,3.55c10.89,1.08,22.59.3,32.9-3.58,4.55-1.71,10.59-4.55,12.11-9.62,1.73-5.75-4.43-9.86-8.87-11.89C168.81,341,167.5,340.56,166.19,340.09Z"/><path class="cls-33" d="M171.39,329l-3.87,1.95c-.74.37-2.25.85-2.59,1.7-.7,1.72,2.89,2.41,3.94,2.76q4.83,1.63,9.67,3.25a11.71,11.71,0,0,0,5.78.49c2.62-.46,5.07-2.18,7.41-3.37A80.45,80.45,0,0,0,171.39,329Zm-60.54,1.55c1.28,1.5,2.49,3.6,4.44,4.25a11.27,11.27,0,0,0,5.1.27c4.93-.72,9.86-1.53,14.78-2.34,1.06-.18,3.61-.59,3.62-2.05,0-.78-1.1-1.63-1.54-2.14a9.72,9.72,0,0,0-1.4-1.59c-.4-.26-.44-.23-1-.19q-5.81.39-11.56,1.25A125.19,125.19,0,0,0,110.85,330.5ZM81.07,353.31c3.5.23,7.16.82,10.67.58,1.33-.09,3.24-.34,4.2-1.39a6.29,6.29,0,0,0,.84-1.58l1.6-3.43c.53-1.13,1.71-2.55.46-3.55A7.07,7.07,0,0,0,95,342.88c-2.31-.16-4.62-.29-6.93-.44a3.25,3.25,0,0,0-1.76.06,7.28,7.28,0,0,0-1.5,1.58A13.77,13.77,0,0,0,81.07,353.31Zm32.57,22.19,4.07-2.08a10.39,10.39,0,0,0,3-1.67c1.69-1.84-2-2.8-3.21-3.21-3.38-1.19-6.76-2.39-10.15-3.56a11.48,11.48,0,0,0-6.2-.44c-2.81.59-5.47,2.44-8,3.71A68.32,68.32,0,0,0,109,374.39C110.56,374.79,112.1,375.15,113.64,375.5Zm44.5,1.86q3-.35,5.9-.81a114,114,0,0,0,13-2.86c-1.31-1.48-2.63-3.7-4.52-4.48a10.8,10.8,0,0,0-5.55-.46c-5.06.74-10.1,1.63-15.13,2.48-1.16.2-3.72.59-3.88,2.11-.08.8.94,1.61,1.39,2.14.63.73,1.5,2.28,2.43,2.46M205,350c-3.43-.22-7.06-.85-10.5-.52-1.27.12-3.15.41-3.93,1.57-1,1.49-1.46,3.69-2.11,5.35-.51,1.32-1.21,2.39.28,3.29a8.35,8.35,0,0,0,3.74.9c2.22.16,4.45.29,6.67.44a5.86,5.86,0,0,0,1.81.12c.48-.19,1.08-1.26,1.38-1.67A12.74,12.74,0,0,0,205,350Z"/><path class="cls-34" d="M81.07,353.35l.23,9.48c.06,2.63.13,4.58,1.45,6.94,2.47,4.4,6.89,7.48,11.25,9.8,9.48,5,20.39,7.42,31,8.64a144,144,0,0,0,33.14,0c10.63-1.25,21.45-3.52,31.15-8.18,4.62-2.22,9.29-5,12.55-9.08,3.91-4.86,3.28-10.19,3.27-16.07v-3.45c-.31,9.69-10.32,15.42-18.23,18.82a100.79,100.79,0,0,1-26.69,6.84,146.26,146.26,0,0,1-29.58.78,110.5,110.5,0,0,1-27.66-5.36c-7.9-2.72-18.29-7.3-21.22-15.89A13.67,13.67,0,0,1,81.07,353.35Z"/><path class="cls-35" d="M200.91,361.12l0,10.86c2.27-2.58,4.1-5.61,4.16-9.15.07-3.7,0-7.41,0-11.11A14.38,14.38,0,0,1,200.91,361.12ZM93.12,368.25l.16,7.14a15.33,15.33,0,0,0,.07,3.52c.21.7,1.21.95,1.9,1.3A72.05,72.05,0,0,0,107,384.69c2.24.66,4.51,1.22,6.8,1.7l-.14-7.61,0-1.93c0-.25.13-1.06,0-1.27s-1.76-.48-2.24-.59a82.55,82.55,0,0,1-12.5-4A54.68,54.68,0,0,1,93.12,368.25Zm58.4,9.71.12,10.86c4.84-.38,9.67-.9,14.46-1.75q3.43-.61,6.83-1.42a18.77,18.77,0,0,0,3.75-1c.33-.17.34,0,.47-.27a4.39,4.39,0,0,0,0-1.4l-.06-9.32a120.26,120.26,0,0,1-19.64,3.75C155.47,377.66,153.49,377.82,151.52,378Z"/><path class="cls-36" d="M191.17,368.08a77.66,77.66,0,0,1-18.54,6.62,120.8,120.8,0,0,1-19.1,3,155.89,155.89,0,0,1-19.93.28,123.45,123.45,0,0,1-19.25-2.45,80.43,80.43,0,0,1-18.71-6.07c-.68-.33-1.36-.69-2-1a76.44,76.44,0,0,0,18.63,7,113.77,113.77,0,0,0,19.18,2.91,141.54,141.54,0,0,0,19.86,0,126.89,126.89,0,0,0,19.28-2.79A81.2,81.2,0,0,0,189,369.21C189.73,368.85,190.46,368.47,191.17,368.08Z"/><path class="cls-37" d="M266.58,354.24A153.27,153.27,0,0,0,235.17,338a197.26,197.26,0,0,0-34.38-9.74C189,326.08,176.88,325,165,326a56.3,56.3,0,0,0-16.87,3.86,24.09,24.09,0,0,0-7.13,4.44,11.77,11.77,0,0,0-4,7.18c-1.56,5.47,1.16,11.06,4.46,15.6a58.94,58.94,0,0,0,12.18,11.94A137.77,137.77,0,0,0,185,386.49a201,201,0,0,0,34.18,10.43,140.35,140.35,0,0,0,35.59,3.24,69.14,69.14,0,0,0,17-2.73c5.37-1.66,11.06-4.49,13.85-9.41,5.83-10.34-4.34-21.83-12.14-28.46C271.28,357.67,268.94,355.94,266.58,354.24Z"/><path class="cls-38" d="M263.35,340.25a119.1,119.1,0,0,0-25.42-13.43A151.73,151.73,0,0,0,210,319c-9.65-1.72-19.64-2.56-29.41-1.44-8.32.94-20.61,3.72-22.9,13.26-2.24,9.34,6.82,18.15,13.41,23.32a107.7,107.7,0,0,0,25.39,14.43A155.51,155.51,0,0,0,224.37,377a109.23,109.23,0,0,0,28.85,2.32,55.17,55.17,0,0,0,13.89-2.5c4.41-1.47,9.05-3.93,11.39-8.14,4.9-8.81-3.31-18.47-9.57-24C267.14,343.11,265.26,341.67,263.35,340.25Z"/><path class="cls-39" d="M250.89,342.34a85.8,85.8,0,0,0-18.38-9.73,106.65,106.65,0,0,0-20.66-5.75,73.19,73.19,0,0,0-20.68-.88c-5.92.72-14.67,2.78-16.16,9.64s5.11,13,9.87,16.72a76.78,76.78,0,0,0,18.2,10.26,108.92,108.92,0,0,0,19.75,6,79,79,0,0,0,20.62,1.67c6.15-.39,14.83-1.68,18.18-7.62,3.5-6.23-2.26-13.12-6.68-17.05C253.66,344.43,252.28,343.38,250.89,342.34Z"/><path class="cls-40" d="M241.37,340a18.21,18.21,0,0,1,2.64-.89c.61-.1.9.17,1.46.51,1,.62,2,1.27,3,1.94a47.82,47.82,0,0,1,5.82,4.6l-4.2.18A49.09,49.09,0,0,0,241.37,340Zm-17.64-7.52.41-1.28c.21-.66.06-.66.58-.67a7.23,7.23,0,0,1,1.92.6c1.31.43,2.63.89,3.93,1.37,2.6,1,5.15,2.06,7.67,3.23l-2.31,1.41A93.16,93.16,0,0,0,223.73,332.51Zm-14.23-3.07c-1.25-.16-2.5-.29-3.76-.39-.77-.06-.89,0-1.36-.63l-1.47-2c2.65.18,5.29.46,7.92.88,1.38.21,2.75.46,4.12.73a6.33,6.33,0,0,1,2,.44c.4.32.28,1.73.33,2.32C214.73,330.25,212.13,329.77,209.5,329.44Zm-17.53.31c-.8.18-1.94.73-2.68.55a10.1,10.1,0,0,1-2.14-1.26l-1.66-1a37.24,37.24,0,0,1,7.55-1.49,13.91,13.91,0,0,1,3-.21c1.13.13,2.24,1.74,3.09,2.54A42.48,42.48,0,0,0,192,329.75Zm-9.66,5.68c-.19.35-.31.93-.62,1s-1.29-.39-1.64-.49l-3.28-1a9,9,0,0,1,2.77-3.81,8.71,8.71,0,0,1,1.39-1c.6-.32.56-.26,1.19,0l3.81,1.81A9.77,9.77,0,0,0,182.31,335.43ZM184,345.64c-1.35-.08-3.19.16-4.47-.26-.74-.25-1.27-1.46-1.66-2.18a12.25,12.25,0,0,1-1.59-5.06l5.15,1.15A12.21,12.21,0,0,0,184,345.64Zm11.65,9.84c-.87.29-1.73.65-2.61.88-.72.19-.94-.05-1.58-.45-1.05-.64-2.09-1.32-3.1-2a49.4,49.4,0,0,1-5.8-4.72l4.38-.18A45.11,45.11,0,0,0,195.65,355.48Zm18,7.79c-.15.49-.41,2-.8,2.09s-1.68-.52-2.13-.67c-1.38-.46-2.75-.93-4.11-1.44-2.67-1-5.3-2.12-7.87-3.34l2.4-1.48A93.46,93.46,0,0,0,213.68,363.27Zm14.65,3.15c1.28.16,2.57.29,3.85.37.79.06.92,0,1.39.64l1.5,2c-2.73-.15-5.46-.45-8.17-.86-1.4-.21-2.79-.46-4.18-.74-.41-.08-2-.15-2.22-.46s-.17-1.84-.22-2.37C223,365.59,225.62,366.08,228.33,366.42Zm17.79-.48c.79-.19,1.94-.77,2.67-.6a9.65,9.65,0,0,1,2.14,1.25l1.66,1a35.4,35.4,0,0,1-7.46,1.64,14.77,14.77,0,0,1-3,.26c-1.13-.13-2.28-1.77-3.12-2.58A38.18,38.18,0,0,0,246.12,365.94Zm9.29-5.9c.13-.26.32-1.05.51-1.13s1.25.38,1.53.46l3.36,1a8.85,8.85,0,0,1-2.49,3.93,8.39,8.39,0,0,1-1.31,1.07c-.58.34-.54.27-1.16,0l-3.78-1.8A9.11,9.11,0,0,0,255.41,360Zm-2.26-10.37,2,.11a9,9,0,0,1,2.38.14c.69.28,1.28,1.55,1.68,2.21a13.24,13.24,0,0,1,1.84,5l-5-1.12A13.32,13.32,0,0,0,253.15,349.67Z"/><path class="cls-41" d="M245,343.32a79,79,0,0,0-31.36-12.54,59.69,59.69,0,0,0-17.08-.82c-4.76.55-11.88,2.13-13.28,7.56s3.76,10.53,7.57,13.6a60.5,60.5,0,0,0,14.45,8.35c10.42,4.42,22.22,7.27,33.59,6.54,5-.32,12.06-1.36,14.78-6.18,2.86-5.05-1.78-10.61-5.35-13.83C247.25,345,246.11,344.18,245,343.32Z"/><path class="cls-42" d="M257.38,336.31a76.94,76.94,0,0,1,13.87,10.53c-2.65.45-5.56,1.39-8.26,1a12.35,12.35,0,0,1-5.7-2.39l-8.44-6.1c-.92-.66-4.15-2.44-2.74-3.85.64-.63,2.09-.65,2.91-.78l4.43-.73C254.78,334.77,256.09,335.52,257.38,336.31Zm-50.53-17.89q3,.46,5.91,1a41.13,41.13,0,0,1,5.94,1.32c.63.23.57.24.87.9l.87,2c.29.64,1,1.59.57,2.3-.72,1.27-3.15.83-4.31.67-5-.7-10-1.39-15-2.18a11.13,11.13,0,0,1-5-1.94c-1.59-1.22-2.12-3.61-2.88-5.38A128.79,128.79,0,0,1,206.85,318.42Zm-43.26,4.44a22.78,22.78,0,0,1,2-1.21,1.41,1.41,0,0,1,1.65-.08l6.77,2.6a10.08,10.08,0,0,1,3.56,1.92c1.42,1.36.4,2.19-.64,3.32-1.29,1.42-2.57,3.36-4.13,4.5-1.24.9-3.31.57-4.69.25-3.53-.81-7-2.54-10.31-3.84A13.65,13.65,0,0,1,163.59,322.86Zm15.18,36.61A69.8,69.8,0,0,1,165,348.59c2.83-.47,5.94-1.44,8.82-1.21a12.09,12.09,0,0,1,6.22,2.45l8.66,6.45c1,.76,4.39,2.84,2.17,4.12a11.16,11.16,0,0,1-3.48.74l-4.55.77Q180.8,360.73,178.77,359.47Zm52.84,18.79q-3.27-.48-6.51-1.11c-1.06-.21-2.11-.42-3.16-.65-.69-.16-2.37-.25-2.85-.72a6.08,6.08,0,0,1-.7-1.63l-.95-2.21c-.3-.7-.71-1.41-.06-2.05,1.07-1.07,3.18-.63,4.52-.45,5,.71,10.13,1.33,15.17,2.13a10.78,10.78,0,0,1,5.42,2.27c1.5,1.33,2.1,3.85,2.89,5.62A119.73,119.73,0,0,1,231.61,378.26Zm43.22-5.4a14.24,14.24,0,0,1-1.83,1.27c-.7.38-.88.16-1.64-.13l-6.72-2.58a9.58,9.58,0,0,1-3.51-2c-1.31-1.34-.42-2.15.53-3.34,1.16-1.47,2.28-3.42,3.71-4.63,1.11-.94,3.07-.66,4.37-.38,3.45.73,6.81,2.44,10.09,3.7A12.94,12.94,0,0,1,274.83,372.86Z"/><path class="cls-43" d="M157.79,330.37l-2.63,9.23c-.72,2.52-1.29,4.43-.77,7.06,1,5.19,4.5,9.72,8.17,13.36,7.86,7.8,17.78,13.51,27.87,17.92a149.59,149.59,0,0,0,31.4,9.83c10.88,2.12,22.35,3.25,33.39,1.64,5.28-.78,10.8-2.1,15.27-5.16a14.21,14.21,0,0,0,5.3-6.11c1.16-2.78,1.85-5.83,2.74-8.7l1-3.18c-3.26,9.39-14.85,11.95-23.63,12.84a101.85,101.85,0,0,1-28.52-1.54,155.65,155.65,0,0,1-28.1-7.93A113.33,113.33,0,0,1,173.6,356a56.32,56.32,0,0,1-10.71-9.8c-2.89-3.53-5.44-7.9-5.49-12.59A14.37,14.37,0,0,1,157.79,330.37Z"/><path class="cls-44" d="M279.43,366.52c-1.12,3.62-2.17,7.27-3.37,10.87-1.13,3.43-3.85,5.83-6.85,7.66l3.28-10.62A14.52,14.52,0,0,0,279.43,366.52ZM170.18,353.33a85.61,85.61,0,0,0,10.26,7.16c.48.29,2.25,1,2.42,1.45.07.19-.24.84-.3,1l-.59,2-2.22,7.61c-2.07-1.15-4.11-2.38-6.08-3.7a70.18,70.18,0,0,1-10.31-8.1c-.59-.58-1.39-1-1.33-1.8a19.68,19.68,0,0,1,1-3.5l2-6.92A56.37,56.37,0,0,0,170.18,353.33Zm54.88,23.81a125,125,0,0,0,20.32,2.32l-2.76,9.06c-.09.32-.19,1.22-.43,1.44s-.22.08-.58.11a28.14,28.14,0,0,1-3.78-.18c-2.42-.16-4.84-.39-7.24-.7-4.94-.63-9.81-1.59-14.66-2.7l3.19-10.64Q222.08,376.55,225.06,377.14Z"/><path class="cls-36" d="M258.39,378.72a83.76,83.76,0,0,1-19.95.55,128.53,128.53,0,0,1-19.78-3.17A147.61,147.61,0,0,1,199.28,370a113.72,113.72,0,0,1-17.88-8.73,80.29,80.29,0,0,1-15.93-12.42c.55.55,1.1,1.1,1.67,1.64a83.18,83.18,0,0,0,16.41,11.62,127.43,127.43,0,0,0,18,8.24A158.48,158.48,0,0,0,221,376.14a126.73,126.73,0,0,0,19.86,3,82.43,82.43,0,0,0,20-.83C260,378.42,259.22,378.58,258.39,378.72Z"/></svg>
